<?xml version='1.0' encoding='utf-8'?>
<svg xmlns="http://www.w3.org/2000/svg" width="1920" height="1080" viewBox="0 0 1920 1080" data-theme="dark">
  <style>
        @font-face {
            font-family: 'Inter';
            src: url('assets/fonts/Inter-Regular.ttf') format('truetype');
            font-weight: 400;
            font-style: normal;
            font-display: swap;
        }
        @font-face {
            font-family: 'Inter';
            src: url('assets/fonts/Inter-Bold.ttf') format('truetype');
            font-weight: 600;
            font-style: normal;
            font-display: swap;
        }
        @font-face {
            font-family: 'Inter';
            src: url('assets/fonts/Inter-Bold.ttf') format('truetype');
            font-weight: 800;
            font-style: normal;
            font-display: swap;
        }
        
:root {
    --background: #0f172a;
    --panel: #1e293b;
    --primary-text: #f1f5f9;
    --muted-text: #94a3b8;
    --inverse-text: #0f172a;
    --border: #334155;
    --shadow-color: #000000;
    --icon-pad-bg: #1e293b;
    --art-glow: #7dd3fc;
    --art-glow-opacity: 0.18;
    --art-sheen: #ffffff;
    --art-sheen-opacity: 0.18;
    --art-shadow: #000000;
    --art-shadow-opacity: 0.28;
    --art-muted-line: #64748b;
    --art-panel-tint: #1e293b;
    --font-family: 'Inter', 'Segoe UI', 'Kalam', Roboto, Helvetica, Arial, sans-serif;
    --radius-xl: 16px;
    --font-family-headline: 'Inter', 'Segoe UI', 'Kalam', Roboto, Helvetica, Arial, sans-serif;
    --font-family-body: 'Inter', 'Segoe UI', 'Kalam', Roboto, Helvetica, Arial, sans-serif;
    --font-heading: 'Inter', 'Segoe UI', 'Kalam', Roboto, Helvetica, Arial, sans-serif;
    --font-body: 'Inter', 'Segoe UI', 'Kalam', Roboto, Helvetica, Arial, sans-serif;
    --font-size-h1: 56px;
    --font-size-h2: 40px;
    --font-size-h3: 28px;
    --font-size-body: 24px;
    --font-size-caption: 18px;
    --secondary-text: var(--muted-text);
    --panel-border: var(--border);
    --font-weight-normal: 400;
    --font-weight-medium: 500;
    --font-weight-semibold: 600;
    --font-weight-bold: 700;
    --spacing-gutter-pct: 0.07;
    --spacing-top-pct: 0.15;
    --spacing-bottom-pct: 0.07;
    --spacing-title-y-pct: 0.055;
    --accent-1: #fbbf24;
    --accent-2: #fb923c;
    --accent-3: #f87171;
    --accent-4: #a3e635;
    --accent-5: #4ade80;
    --accent-6: #d4a574;
}
:root[data-theme="dark"] {
    --background: #0f172a;
    --panel: #1e293b;
    --primary-text: #f1f5f9;
    --muted-text: #94a3b8;
    --inverse-text: #0f172a;
    --border: #334155;
    --shadow-color: #000000;
    --icon-pad-bg: #1e293b;
    --art-glow: #7dd3fc;
    --art-glow-opacity: 0.18;
    --art-sheen: #ffffff;
    --art-sheen-opacity: 0.18;
    --art-shadow: #000000;
    --art-shadow-opacity: 0.28;
    --art-muted-line: #64748b;
    --art-panel-tint: #1e293b;
    --accent-1: #fbbf24;
    --accent-2: #fb923c;
    --accent-3: #f87171;
    --accent-4: #a3e635;
    --accent-5: #4ade80;
    --accent-6: #d4a574;
}
:root[data-theme="light"] {
    --background: #f8fafc;
    --panel: #ffffff;
    --primary-text: #0f172a;
    --muted-text: #64748b;
    --inverse-text: #ffffff;
    --border: #e2e8f0;
    --shadow-color: #000000;
    --icon-pad-bg: #1e293b;
    --art-glow: #0891b2;
    --art-glow-opacity: 0.10;
    --art-sheen: #ffffff;
    --art-sheen-opacity: 0.34;
    --art-shadow: #0f172a;
    --art-shadow-opacity: 0.14;
    --art-muted-line: #94a3b8;
    --art-panel-tint: #f1f5f9;
    --accent-1: #d97706;
    --accent-2: #ea580c;
    --accent-3: #dc2626;
    --accent-4: #65a30d;
    --accent-5: #16a34a;
    --accent-6: #92400e;
}</style>
  <rect x="0" y="0" width="1.92E+3" height="1.08E+3" fill="#252a34" stroke="none" id="programmatic_background"/>
  <line id="HEADER_DECOR" x1="960.0" x2="1080.0" y1="105.0" y2="105.0" stroke="var(--accent-1)" stroke-width="6" stroke-linecap="round"/>
  <defs>
    <pattern id="svg932fc0de-napkin-hatch" patternUnits="userSpaceOnUse" width="12" height="12">
      <path d="M -3 12 L 12 -3 M 0 15 L 15 0" fill="none" stroke="var(--primary-text)" stroke-width="1" stroke-opacity="0.05"/>
    </pattern>
    <filter id="svg932fc0de-shadow" x="-30%" y="-30%" width="160%" height="160%">
      <feDropShadow dx="0" dy="3" stdDeviation="6" flood-color="#000000" flood-opacity="0.10"/>
      <feDropShadow dx="0" dy="8" stdDeviation="12" flood-color="#000000" flood-opacity="0.16"/>
    </filter>
    <radialGradient id="svg932fc0de-universal-edge-vignette" cx="50%" cy="50%" r="72%">
      <stop offset="0%" stop-color="var(--background)" stop-opacity="0"/>
      <stop offset="72%" stop-color="var(--background)" stop-opacity="0.12"/>
      <stop offset="100%" stop-color="var(--primary-text)" stop-opacity="0.08"/>
    </radialGradient>
    <linearGradient id="svg932fc0de-universal-surface-sheen" x1="0%" y1="0%" x2="100%" y2="100%">
      <stop offset="0%" stop-color="var(--art-sheen)" stop-opacity="var(--art-sheen-opacity)"/>
      <stop offset="46%" stop-color="var(--art-sheen)" stop-opacity="0.035"/>
      <stop offset="100%" stop-color="var(--art-panel-tint)" stop-opacity="0.14"/>
    </linearGradient>
    <radialGradient id="svg932fc0de-universal-icon-aura" cx="50%" cy="42%" r="64%">
      <stop offset="0%" stop-color="var(--art-glow)" stop-opacity="var(--art-glow-opacity)"/>
      <stop offset="100%" stop-color="var(--background)" stop-opacity="0"/>
    </radialGradient>
    <linearGradient id="svg932fc0de-card-panel-sheen" x1="0%" y1="0%" x2="100%" y2="100%">
      <stop offset="0%" stop-color="var(--inverse-text)" stop-opacity="0.20"/>
      <stop offset="48%" stop-color="var(--inverse-text)" stop-opacity="0.04"/>
      <stop offset="100%" stop-color="var(--background)" stop-opacity="0.16"/>
    </linearGradient>
    <radialGradient id="svg932fc0de-card-icon-glow" cx="50%" cy="35%" r="62%">
      <stop offset="0%" stop-color="var(--inverse-text)" stop-opacity="0.22"/>
      <stop offset="100%" stop-color="var(--background)" stop-opacity="0"/>
    </radialGradient>
    <filter id="svg932fc0de-text-glow" x="-20%" y="-20%" width="140%" height="140%">
      <feDropShadow dx="0" dy="0" stdDeviation="2" flood-color="#000000" flood-opacity="0.4"/>
    </filter>
    <marker id="svg932fc0de-arrowhead" markerWidth="10" markerHeight="7" refX="9" refY="3.5" orient="auto" markerUnits="strokeWidth">
      <polygon points="0 0, 10 3.5, 0 7" fill="var(--muted-text)" opacity="0.6"/>
    </marker>
  </defs>
  <rect width="100%" height="100%" fill="var(--background)" id="CANVAS_BG"/>
  <rect width="100%" height="100%" fill="url(#svg932fc0de-napkin-hatch)"/>
  <rect id="UNIVERSAL_EDGE_VIGNETTE" width="100%" height="100%" fill="url(#svg932fc0de-universal-edge-vignette)" opacity="0.62"/>
  <text id="TITLE" x="960.0" y="59" font-size="54" font-weight="800" fill="#f1f5f9" text-anchor="middle" style="font-size: 60px; font-family: Inter, Segoe UI, Kalam, Roboto, Helvetica, Arial, sans-serif; font-weight: 700; letter-spacing:-1.2px;" data-final-font-size="60">
    <tspan x="960.0" dy="68.00px">Kecksburg Acorn Visual Overlaps</tspan>
  </text>
  <rect id="TITLE_FRAME" x="134" y="35" width="1652" height="78" fill="none"/>
  <rect x="120" y="150" width="1680" height="830" rx="40" fill="var(--panel)" fill-opacity="0.24" stroke="var(--muted-text)" stroke-width="2" opacity="0.94"/>
  <g id="DIAGRAM_MAIN">
    <g filter="url(#svg932fc0de-shadow)">
      <rect id="ITEM_1_BG" x="170" y="180" width="480" height="388" rx="28" fill="var(--panel)" fill-opacity="0.98" stroke="var(--accent-1)" stroke-width="3"/>
      <rect x="170" y="180" width="480" height="18" rx="9" fill="var(--accent-1)" fill-opacity="0.55"/>
      <rect x="295" y="216" width="230" height="30" rx="15" fill="var(--accent-1)" fill-opacity="0.10"/>
      <circle id="ITEM_1_PAD" cx="410" cy="262" r="54" fill="var(--icon-pad-bg)" opacity="0.95" fill-opacity="0.9" stroke-width="2" stroke="var(--primary-text)"/>
      <circle id="ITEM_1_PAD_INNER" cx="410" cy="262" r="42.12" fill="var(--accent-2)" fill-opacity="0.22"/>
      <circle cx="410" cy="262" r="42" fill="none" stroke="var(--accent-1)" stroke-width="3" stroke-dasharray="6 4"/>
      <g id="ITEM_1_ICON" transform="translate(373, 225)" data-icon-size="74">
        <g transform="translate(-11.137142857142862,-11.137142857142862) scale(3.008571428571429)">
          <path d="M4 11H3V14.7294C2.62984 15.0537 2.34087 15.4691 2.17 15.94C2.165 15.95 2.1625 15.96 2.16 15.97C2.15749 15.98 2.15499 15.99 2.14999 16C2.07999 16.2 2.04 16.41 2.02 16.63L2.01999 16.6301C2.01 16.7301 2 16.83 2 16.93V29H30V16.93C30 16.78 29.99 16.63 29.96 16.49C29.94 16.32 29.9 16.15 29.85 16C29.845 15.99 29.8425 15.98 29.84 15.97C29.8375 15.96 29.835 15.95 29.83 15.94C29.42 14.81 28.34 14 27.07 14H27V11H26V14H23V11H22V14H20V12H19V14H13V12H12V14H8V11H7V14H4.92999C4.60585 14 4.29296 14.0536 4 14.1525V11Z" fill="#9B9B9B"/>
          <path d="M11.959 12H20.041C20.5704 12 21 11.57 21 11.04V6.96C21 6.43 20.5704 6 20.041 6H11.959C11.4296 6 11 6.43 11 6.96V11.04C11 11.57 11.4296 12 11.959 12ZM13 22.9933C13 21.337 14.34 20 16 20C17.66 20 19 21.337 19 22.9933V29H13V22.9933ZM4 24.9915C4 23.3362 5.34 22 7 22C8.65 22 10 23.3462 10 24.9915V29H4V24.9915ZM25 22C23.34 22 22 23.3381 22 24.9957V29H28V24.9957C28 23.3481 26.65 22 25 22Z" fill="#212121"/>
          <path d="M30 16.94V17.01H2V16.94C2 16.84 2.01 16.74 2.02 16.64C2.04 16.42 2.07999 16.21 2.14999 16.01H29.85C29.9 16.16 29.94 16.33 29.96 16.5C29.99 16.64 30 16.79 30 16.94Z" fill="#F8312F"/>
          <path d="M5.96997 3.52002C5.96997 3.79616 5.74611 4.02002 5.46997 4.02002C5.19383 4.02002 4.96997 3.79616 4.96997 3.52002C4.96997 3.24388 5.19383 3.02002 5.46997 3.02002C5.74611 3.02002 5.96997 3.24388 5.96997 3.52002ZM19.5051 8H18.495C18.2222 8 18 7.77551 18 7.5C18 7.22449 18.2222 7 18.495 7H19.5051C19.7778 7 20 7.22449 20 7.5C20 7.77551 19.7778 8 19.5051 8ZM3 10.4132V11.5551C3 11.8756 3.39933 12.086 3.76871 11.9658L5.71547 11.3447C6.09484 11.2245 6.09484 10.7938 5.71547 10.6736L3.70881 10.0225C3.36938 9.9324 3 10.1227 3 10.4132ZM7 10.4132V11.5551C7 11.8756 7.39934 12.086 7.76872 11.9658L9.71547 11.3447C10.0948 11.2245 10.0948 10.7938 9.71547 10.6736L7.70881 10.0225C7.36938 9.9324 7 10.1227 7 10.4132ZM22 11.5511V10.4067C22 10.113 22.3694 9.92062 22.7088 10.032L24.7155 10.6801C25.0948 10.8017 25.0948 11.227 24.7155 11.3485L22.7687 11.9663C22.3993 12.0878 22 11.865 22 11.5511ZM26 10.4117V11.5547C26 11.8755 26.3993 12.086 26.7687 11.9657L28.7155 11.3541C29.0948 11.2338 29.0948 10.8127 28.7155 10.6824L26.7088 10.0307C26.3694 9.92043 26 10.121 26 10.4117ZM19 10.5C19 10.7755 19.2245 11 19.5 11C19.7755 11 20 10.7755 20 10.5C20 10.2245 19.7755 10 19.5 10C19.2245 10 19 10.2245 19 10.5ZM23.49 9.02002C23.7661 9.02002 23.99 8.79616 23.99 8.52002C23.99 8.24388 23.7661 8.02002 23.49 8.02002C23.2138 8.02002 22.99 8.24388 22.99 8.52002C22.99 8.79616 23.2138 9.02002 23.49 9.02002ZM27.9399 3.53003C27.9399 3.80617 27.7161 4.03003 27.4399 4.03003C27.1638 4.03003 26.9399 3.80617 26.9399 3.53003C26.9399 3.25389 27.1638 3.03003 27.4399 3.03003C27.7161 3.03003 27.9399 3.25389 27.9399 3.53003Z" fill="#F8312F"/>
          <path d="M11.47 5.02002C11.7461 5.02002 11.97 4.79616 11.97 4.52002C11.97 4.24388 11.7461 4.02002 11.47 4.02002C11.1938 4.02002 10.97 4.24388 10.97 4.52002C10.97 4.79616 11.1938 5.02002 11.47 5.02002ZM5.80997 8.83C5.60997 9.03 5.28997 9.03 5.08997 8.83L4.12998 7.87C3.92998 7.67 3.92998 7.35 4.12998 7.15C4.32998 6.95 4.64998 6.95 4.84998 7.15L5.80997 8.11C6.00997 8.31 6.00997 8.63 5.80997 8.83ZM22.07 5.87004C22.27 6.07004 22.59 6.07004 22.79 5.87004C22.99 5.67004 22.99 5.35004 22.79 5.15004L21.83 4.19004C21.63 3.99004 21.31 3.99004 21.11 4.19004C20.91 4.39004 20.91 4.71004 21.11 4.91004L22.07 5.87004Z" fill="#8D65C5"/>
          <path d="M8.88001 4.83C8.68001 5.03 8.36001 5.03 8.16001 4.83C7.96001 4.63 7.96001 4.31 8.16001 4.11L9.12 3.15C9.32 2.95 9.64 2.95 9.84 3.15C10.04 3.35 10.04 3.67 9.84 3.87L8.88001 4.83ZM12 7.5C12 7.77551 12.2244 8 12.4998 8C12.7753 8 13.0099 7.77551 12.9997 7.5C12.9997 7.22449 12.7753 7 12.4998 7C12.2244 7 12 7.22449 12 7.5ZM12.4242 11H13.5755C13.8178 11 14.0097 10.8081 13.9996 10.5758V9.42424C13.9996 9.19192 13.8077 9 13.5755 9H12.4242C12.1919 9 12 9.19192 12 9.42424V10.5758C12 10.8081 12.1919 11 12.4242 11ZM28.47 9C28.7461 9 28.97 8.77614 28.97 8.5C28.97 8.22386 28.7461 8 28.47 8C28.1938 8 27.97 8.22386 27.97 8.5C27.97 8.77614 28.1938 9 28.47 9Z" fill="#FFB02E"/>
          <path d="M25.8099 7.83C25.6099 8.03 25.2899 8.03 25.0899 7.83C24.8999 7.63 24.8999 7.31 25.0899 7.11L26.05 6.15C26.25 5.95 26.57 5.95 26.77 6.15C26.97 6.35 26.97 6.67 26.77 6.87L25.8099 7.83ZM15 7.5C15 7.77551 15.2244 8 15.4998 8C15.7855 8 16.0099 7.77551 15.9997 7.5C15.9997 7.22449 15.7753 7 15.4998 7C15.2244 7 15 7.22449 15 7.5ZM15.4242 11H16.5755C16.8178 11 17.0097 10.811 16.9996 10.5821V9.4479C16.9996 9.21906 16.8077 9.03003 16.5755 9.03003H15.4242C15.1919 9.03003 15 9.21906 15 9.4479V10.5821C15 10.811 15.1919 11 15.4242 11ZM7.48999 8.02002C7.76613 8.02002 7.98999 7.79616 7.98999 7.52002C7.98999 7.24388 7.76613 7.02002 7.48999 7.02002C7.21385 7.02002 6.98999 7.24388 6.98999 7.52002C6.98999 7.79616 7.21385 8.02002 7.48999 8.02002Z" fill="#00D26A"/>
        </g>
      </g>
      <text id="ITEM_1_HEAD" x="410.0" y="328.0" font-weight="800" font-size="28" fill="var(--accent-2)" text-anchor="middle" data-bg-id="ITEM_1_BG" fill-opacity="1.0" stroke="none" style="font-size: 30px; font-family: Inter, Segoe UI, Kalam, Roboto, Helvetica, Arial, sans-serif; font-weight: 700; letter-spacing:-0.4px;" data-final-font-size="30">
        <tspan x="410.0" dy="42.97px">Bulbous Front Section</tspan>
      </text>
      <rect id="ITEM_1_HEAD_FRAME" x="230" y="328" width="360" height="56" fill="none"/>
      <text id="ITEM_1_BODY" x="410.0" y="378.0" font-size="18" fill="var(--primary-text)" text-anchor="middle" data-bg-id="ITEM_1_BG" style="font-size: 26px; font-family: Inter, Segoe UI, Kalam, Roboto, Helvetica, Arial, sans-serif; font-weight: 400;" data-final-font-size="26">
        <tspan x="410.0" dy="47.53px">Witnesses described a rounded upper</tspan>
        <tspan x="410.0" dy="29.90px">portion of the craft</tspan>
      </text>
      <rect id="ITEM_1_BODY_FRAME" x="195" y="378" width="430" height="156" fill="none"/>
    </g>
    <g filter="url(#svg932fc0de-shadow)">
      <rect id="ITEM_2_BG" x="720" y="180" width="480" height="388" rx="28" fill="var(--panel)" fill-opacity="0.98" stroke="var(--accent-2)" stroke-width="3"/>
      <rect x="720" y="180" width="480" height="18" rx="9" fill="var(--accent-2)" fill-opacity="0.55"/>
      <rect x="845" y="216" width="230" height="30" rx="15" fill="var(--accent-2)" fill-opacity="0.10"/>
      <circle id="ITEM_2_PAD" cx="960" cy="262" r="54" fill="var(--icon-pad-bg)" opacity="0.95" fill-opacity="0.9" stroke-width="2" stroke="var(--primary-text)"/>
      <circle id="ITEM_2_PAD_INNER" cx="960" cy="262" r="42.12" fill="var(--accent-3)" fill-opacity="0.22"/>
      <circle cx="960" cy="262" r="42" fill="none" stroke="var(--accent-2)" stroke-width="3" stroke-dasharray="6 4"/>
      <g id="ITEM_2_ICON" transform="translate(923, 225)" data-icon-size="74">
        <g transform="translate(-11.031578947368427,-10.292631578947375) scale(0.18473684210526317)" vector-effect="non-scaling-stroke" fill="#f1f5f9" fill-opacity="1.0" stroke="none">
          <path fill="#f1f5f9" d="M88 32v16H72V34.67L32 48v14.31l40-13.33v16.87L32 79.18V188l40-13.3V286h16V175.5l384 169v112l-384-169V346H72v-59.3L32 300v59.6l40-13.4v16.9l-40 13.3v15.2l40-13.4v16.9l-40 13.3V464l40 13.3V396h16v-17.2L282.7 464h-39.8L88 396.2V480h400V32h-16zm0 16.71L472 215.1v17.3L88 66.14V174H72V66h16zm0 298.09L351.6 464h-39.2L88 364.3V378H72v-14h16z" vector-effect="non-scaling-stroke" stroke="none"/>
        </g>
      </g>
      <text id="ITEM_2_HEAD" x="960.0" y="328.0" font-weight="800" font-size="28" fill="var(--accent-3)" text-anchor="middle" data-bg-id="ITEM_2_BG" fill-opacity="1.0" stroke="none" style="font-size: 30px; font-family: Inter, Segoe UI, Kalam, Roboto, Helvetica, Arial, sans-serif; font-weight: 700; letter-spacing:-0.4px;" data-final-font-size="30">
        <tspan x="960.0" dy="42.97px">Metallic Exterior Finish</tspan>
      </text>
      <rect id="ITEM_2_HEAD_FRAME" x="780" y="328" width="360" height="56" fill="none"/>
      <text id="ITEM_2_BODY" x="960.0" y="378.0" font-size="18" fill="var(--primary-text)" text-anchor="middle" data-bg-id="ITEM_2_BG" style="font-size: 26px; font-family: Inter, Segoe UI, Kalam, Roboto, Helvetica, Arial, sans-serif; font-weight: 400;" data-final-font-size="26">
        <tspan x="960.0" dy="47.53px">Descriptions consistently mention</tspan>
        <tspan x="960.0" dy="29.90px">a shiny metal surface appearance</tspan>
      </text>
      <rect id="ITEM_2_BODY_FRAME" x="745" y="378" width="430" height="156" fill="none"/>
    </g>
    <g filter="url(#svg932fc0de-shadow)">
      <rect id="ITEM_3_BG" x="1270" y="180" width="480" height="388" rx="28" fill="var(--panel)" fill-opacity="0.98" stroke="var(--accent-3)" stroke-width="3"/>
      <rect x="1270" y="180" width="480" height="18" rx="9" fill="var(--accent-3)" fill-opacity="0.55"/>
      <rect x="1395" y="216" width="230" height="30" rx="15" fill="var(--accent-3)" fill-opacity="0.10"/>
      <circle id="ITEM_3_PAD" cx="1510" cy="262" r="54" fill="var(--icon-pad-bg)" opacity="0.95" fill-opacity="0.9" stroke-width="2" stroke="var(--primary-text)"/>
      <circle id="ITEM_3_PAD_INNER" cx="1510" cy="262" r="42.12" fill="var(--accent-4)" fill-opacity="0.22"/>
      <circle cx="1510" cy="262" r="42" fill="none" stroke="var(--accent-3)" stroke-width="3" stroke-dasharray="6 4"/>
      <g id="ITEM_3_ICON" transform="translate(1473, 225)" data-icon-size="74">
        <g transform="translate(-8.689491525423733,-10.474237288135598) scale(3.8074576271186444)" vector-effect="non-scaling-stroke" stroke-width="2.60" stroke-linecap="round" stroke-linejoin="round" stroke-opacity="1.0">
          <path d="M10 20a1 1 0 0 0 .553.895l2 1A1 1 0 0 0 14 21v-7a2 2 0 0 1 .517-1.341L21.74 4.67A1 1 0 0 0 21 3H3a1 1 0 0 0-.742 1.67l7.225 7.989A2 2 0 0 1 10 14z" vector-effect="non-scaling-stroke" fill="none" stroke="#f1f5f9"/>
        </g>
      </g>
      <text id="ITEM_3_HEAD" x="1510.0" y="328.0" font-weight="800" font-size="28" fill="var(--accent-4)" text-anchor="middle" data-bg-id="ITEM_3_BG" fill-opacity="1.0" stroke="none" style="font-size: 30px; font-family: Inter, Segoe UI, Kalam, Roboto, Helvetica, Arial, sans-serif; font-weight: 700; letter-spacing:-0.4px;" data-final-font-size="30">
        <tspan x="1510.0" dy="42.97px">Tapering Lower Body</tspan>
      </text>
      <rect id="ITEM_3_HEAD_FRAME" x="1330" y="328" width="360" height="56" fill="none"/>
      <text id="ITEM_3_BODY" x="1510.0" y="378.0" font-size="18" fill="var(--primary-text)" text-anchor="middle" data-bg-id="ITEM_3_BG" style="font-size: 26px; font-family: Inter, Segoe UI, Kalam, Roboto, Helvetica, Arial, sans-serif; font-weight: 400;" data-final-font-size="26">
        <tspan x="1510.0" dy="47.53px">The craft narrowed toward the bottom</tspan>
        <tspan x="1510.0" dy="29.90px">in many accounts</tspan>
      </text>
      <rect id="ITEM_3_BODY_FRAME" x="1295" y="378" width="430" height="156" fill="none"/>
    </g>
    <g filter="url(#svg932fc0de-shadow)">
      <rect id="ITEM_4_BG" x="260" y="580" width="660" height="370" rx="30" fill="var(--panel)" fill-opacity="0.98" stroke="var(--accent-4)" stroke-width="3"/>
      <rect x="260" y="590" width="660" height="18" rx="9" fill="var(--accent-4)" fill-opacity="0.55"/>
      <rect x="430" y="628" width="320" height="32" rx="16" fill="var(--accent-4)" fill-opacity="0.10"/>
      <circle id="ITEM_4_PAD" cx="590" cy="684" r="54" fill="var(--icon-pad-bg)" opacity="0.95" fill-opacity="0.9" stroke-width="2" stroke="var(--primary-text)"/>
      <circle id="ITEM_4_PAD_INNER" cx="590" cy="684" r="42.12" fill="var(--accent-5)" fill-opacity="0.22"/>
      <circle cx="590" cy="684" r="42" fill="none" stroke="var(--accent-4)" stroke-width="3" stroke-dasharray="6 4"/>
      <g id="ITEM_4_ICON" transform="translate(551, 645)" data-icon-size="78">
        <g transform="translate(-9.137142857142862,-19.667142857142863) scale(3.008571428571429)">
          <path d="M24.64 10H15.09C15.05 10 15.01 10 14.98 10C13.92 10.04 12.94 10.61 12.35 11.49L12 12L10.5659 14.985L7.98 18H4.88C3.59 18 2.5 18.84 2.13 20L2.39603 21.5L2 23V24L16 25L30 24V19.51C30 19 29.95 18.49 29.86 18L28.5453 15.2111C28.5453 15.2111 27.78 12.1 27.76 12.04C27.22 10.81 26 10 24.64 10Z" fill="#F8312F"/>
          <path d="M28.61 26H3.39C2.62 26 2 25.38 2 24.61V24H30V24.61C30 25.38 29.38 26 28.61 26Z" fill="#9B9B9B"/>
          <path d="M12 12L7.98999 18H15.03C15.56 18 15.99 17.57 15.99 17.04V12.96C15.99 12.43 15.56 12 15.03 12H12ZM23.01 18H18.97C18.44 18 18.01 17.57 18.01 17.04V12.96C18.01 12.43 18.44 12 18.97 12H23.01C23.54 12 23.97 12.43 23.97 12.96V17.04C23.97 17.57 23.54 18 23.01 18ZM27.83 12.21L29.47 16.58C29.64 17.04 29.77 17.52 29.85 18H26.94C26.41 18 25.98 17.57 25.98 17.04V13.04C25.98 12.47 26.45 12 27.02 12H27.74C27.74 12 27.81 12.15 27.83 12.21Z" fill="#26C9FC"/>
          <path d="M3.99 22V21C3.99 20.45 3.54 20 2.99 20H2.14C2.04 20.29 2 20.6 2 21.27V23H2.99C3.54 23 3.99 22.55 3.99 22Z" fill="#E6E6E6"/>
          <path d="M12.02 25.5C12.02 27.433 10.453 29 8.52002 29C6.58702 29 5.02002 27.433 5.02002 25.5C5.02002 23.567 6.58702 22 8.52002 22C10.453 22 12.02 23.567 12.02 25.5ZM27 25.5C27 27.433 25.433 29 23.5 29C21.567 29 20 27.433 20 25.5C20 23.567 21.567 22 23.5 22C25.433 22 27 23.567 27 25.5Z" fill="#321B41"/>
          <path d="M10 25.5C10 26.3284 9.32843 27 8.5 27C7.67157 27 7 26.3284 7 25.5C7 24.6716 7.67157 24 8.5 24C9.32843 24 10 24.6716 10 25.5ZM25 25.5C25 26.3284 24.3284 27 23.5 27C22.6716 27 22 26.3284 22 25.5C22 24.6716 22.6716 24 23.5 24C24.3284 24 25 24.6716 25 25.5Z" fill="#E6E6E6"/>
          <path d="M29.99 20H29.49C28.64 20 27.95 20.71 27.99 21.57C28.03 22.38 28.73 23 29.54 23H29.99V20Z" fill="#CA0B4A"/>
          <path d="M11.13 19H11.52C11.79 19 12 18.78 12 18.52V16.48C12 16.21 11.78 16 11.52 16H11.13C10.51 16 10 16.51 10 17.13V17.87C10 18.49 10.51 19 11.13 19Z" fill="#321B41"/>
        </g>
      </g>
      <text id="ITEM_4_HEAD" x="590.0" y="754.0" font-weight="800" font-size="30" fill="var(--accent-5)" text-anchor="middle" data-bg-id="ITEM_4_BG" fill-opacity="1.0" stroke="none" style="font-size: 30px; font-family: Inter, Segoe UI, Kalam, Roboto, Helvetica, Arial, sans-serif; font-weight: 700; letter-spacing:-0.4px;" data-final-font-size="30">
        <tspan x="590.0" dy="44.21px">Compact Scale Estimates</tspan>
      </text>
      <rect id="ITEM_4_HEAD_FRAME" x="380" y="754" width="420" height="58" fill="none"/>
      <text id="ITEM_4_BODY" x="595.0" y="798.0" font-size="18" fill="var(--primary-text)" text-anchor="middle" data-bg-id="ITEM_4_BG" style="font-size: 26px; font-family: Inter, Segoe UI, Kalam, Roboto, Helvetica, Arial, sans-serif; font-weight: 400;" data-final-font-size="26">
        <tspan x="595.0" dy="45.54px">Witnesses estimated dimensions fitting</tspan>
        <tspan x="595.0" dy="29.90px">a Volkswagen-sized craft</tspan>
      </text>
      <rect id="ITEM_4_BODY_FRAME" x="360" y="798" width="470" height="148" fill="none"/>
    </g>
    <g filter="url(#svg932fc0de-shadow)">
      <rect id="ITEM_5_BG" x="1000" y="580" width="660" height="370" rx="30" fill="var(--panel)" fill-opacity="0.98" stroke="var(--accent-5)" stroke-width="3"/>
      <rect x="1000" y="590" width="660" height="18" rx="9" fill="var(--accent-5)" fill-opacity="0.55"/>
      <rect x="1170" y="628" width="320" height="32" rx="16" fill="var(--accent-5)" fill-opacity="0.10"/>
      <circle id="ITEM_5_PAD" cx="1330" cy="684" r="54" fill="var(--icon-pad-bg)" opacity="0.95" fill-opacity="0.9" stroke-width="2" stroke="var(--primary-text)"/>
      <circle id="ITEM_5_PAD_INNER" cx="1330" cy="684" r="42.12" fill="var(--accent-6)" fill-opacity="0.22"/>
      <circle cx="1330" cy="684" r="42" fill="none" stroke="var(--accent-5)" stroke-width="3" stroke-dasharray="6 4"/>
      <g id="ITEM_5_ICON" transform="translate(1291, 645)" data-icon-size="78">
        <g transform="translate(-10.395272727272733,-9.24654545454546) scale(3.063272727272728)">
          <path d="M12.0955 2.00006C11.3976 1.98479 10.7193 2.23248 10.1955 2.69402C9.35852 3.44402 9.47151 4.16102 8.72451 5.21502C8.51573 5.55185 8.24017 5.84237 7.91475 6.06854C7.58934 6.29471 7.22102 6.4518 6.83254 6.53008L6.80355 6.53704C6.2786 6.68227 5.81167 6.98694 5.46737 7.40899C5.12307 7.83104 4.91839 8.34958 4.88155 8.893C4.23255 13.982 5.98151 21.8931 10.2035 26.2241C11.3554 27.3166 12.611 28.2941 13.9525 29.143C15.3322 29.6195 16.8318 29.6195 18.2115 29.143C19.5677 28.3047 20.8315 27.3252 21.9816 26.221C26.0686 22.029 27.9655 14.0831 27.3035 8.89007C27.272 8.33987 27.0659 7.81407 26.715 7.38909C26.3641 6.96412 25.8869 6.6621 25.3526 6.52703C24.9641 6.44875 24.5957 6.29166 24.2703 6.06549C23.9449 5.83931 23.6694 5.54892 23.4606 5.21209C22.7846 4.25809 22.7935 3.4121 21.9895 2.6911C21.4657 2.22955 20.7875 1.98174 20.0895 1.997L12.0955 2.00006Z" fill="#E6E6E6"/>
          <path d="M20.0089 3.5H16L12.7858 15.9188L16 28.5C18 28.5 18 28 20 26.5C20 26.5 26.5 22 26 9.5C26 9.5 26.0024 8.25 25 8C22.5 7.5 21.5 4.5 21.5 4.5C21.368 4.16593 21 3.5 20.0089 3.5Z" fill="#AEDDFF"/>
          <path d="M12.0186 3.5H16.0275V28.5C14.0275 28.5 14.0275 28 12.0275 26.5C12.0275 26.5 5.52747 22 6.02747 9.5C6.02747 9.5 6.02505 8.25 7.02747 8C9.52747 7.5 10.5275 4.5 10.5275 4.5C10.6594 4.16593 11.0275 3.5 12.0186 3.5Z" fill="#00A6ED"/>
        </g>
      </g>
      <text id="ITEM_5_HEAD" x="1330.0" y="754.0" font-weight="800" font-size="30" fill="var(--accent-6)" text-anchor="middle" data-bg-id="ITEM_5_BG" fill-opacity="1.0" stroke="none" style="font-size: 30px; font-family: Inter, Segoe UI, Kalam, Roboto, Helvetica, Arial, sans-serif; font-weight: 700; letter-spacing:-0.4px;" data-final-font-size="30">
        <tspan x="1330.0" dy="44.21px">Atmospheric Entry Design</tspan>
      </text>
      <rect id="ITEM_5_HEAD_FRAME" x="1120" y="754" width="420" height="58" fill="none"/>
      <text id="ITEM_5_BODY" x="1335.0" y="798.0" font-size="18" fill="var(--primary-text)" text-anchor="middle" data-bg-id="ITEM_5_BG" style="font-size: 26px; font-family: Inter, Segoe UI, Kalam, Roboto, Helvetica, Arial, sans-serif; font-weight: 400;" data-final-font-size="26">
        <tspan x="1335.0" dy="45.54px">Shape matches hardware designed for high-</tspan>
        <tspan x="1335.0" dy="29.90px">heat survival</tspan>
      </text>
      <rect id="ITEM_5_BODY_FRAME" x="1100" y="798" width="470" height="148" fill="none"/>
    </g>
  </g>
</svg>
