<?xml version='1.0' encoding='utf-8'?>
<svg xmlns="http://www.w3.org/2000/svg" width="1920" height="1080" viewBox="0 0 1920 1080" data-theme="light">
  <style>
        @font-face {
            font-family: 'Inter';
            src: url('assets/fonts/Inter-Regular.ttf') format('truetype');
            font-weight: 400;
            font-style: normal;
            font-display: swap;
        }
        @font-face {
            font-family: 'Inter';
            src: url('assets/fonts/Inter-Bold.ttf') format('truetype');
            font-weight: 600;
            font-style: normal;
            font-display: swap;
        }
        @font-face {
            font-family: 'Inter';
            src: url('assets/fonts/Inter-Bold.ttf') format('truetype');
            font-weight: 800;
            font-style: normal;
            font-display: swap;
        }
        
:root {
    --background: #f8fafc;
    --panel: #ffffff;
    --primary-text: #0f172a;
    --muted-text: #64748b;
    --inverse-text: #ffffff;
    --border: #e2e8f0;
    --shadow-color: #000000;
    --icon-pad-bg: #1e293b;
    --art-glow: #0891b2;
    --art-glow-opacity: 0.10;
    --art-sheen: #ffffff;
    --art-sheen-opacity: 0.34;
    --art-shadow: #0f172a;
    --art-shadow-opacity: 0.14;
    --art-muted-line: #94a3b8;
    --art-panel-tint: #f1f5f9;
    --font-family: 'Inter', 'Segoe UI', 'Kalam', Roboto, Helvetica, Arial, sans-serif;
    --radius-xl: 16px;
    --font-family-headline: 'Inter', 'Segoe UI', 'Kalam', Roboto, Helvetica, Arial, sans-serif;
    --font-family-body: 'Inter', 'Segoe UI', 'Kalam', Roboto, Helvetica, Arial, sans-serif;
    --font-heading: 'Inter', 'Segoe UI', 'Kalam', Roboto, Helvetica, Arial, sans-serif;
    --font-body: 'Inter', 'Segoe UI', 'Kalam', Roboto, Helvetica, Arial, sans-serif;
    --font-size-h1: 56px;
    --font-size-h2: 40px;
    --font-size-h3: 28px;
    --font-size-body: 24px;
    --font-size-caption: 18px;
    --secondary-text: var(--muted-text);
    --panel-border: var(--border);
    --font-weight-normal: 400;
    --font-weight-medium: 500;
    --font-weight-semibold: 600;
    --font-weight-bold: 700;
    --spacing-gutter-pct: 0.07;
    --spacing-top-pct: 0.15;
    --spacing-bottom-pct: 0.07;
    --spacing-title-y-pct: 0.055;
    --accent-1: #4f46e5;
    --accent-2: #059669;
    --accent-3: #db2777;
    --accent-4: #d97706;
    --accent-5: #0284c7;
    --accent-6: #7c3aed;
    --accent-7: #dc2626;
    --accent-8: #0d9488;
    --accent-9: #ea580c;
    --accent-10: #c026d3;
}
:root[data-theme="dark"] {
    --background: #0f172a;
    --panel: #1e293b;
    --primary-text: #f1f5f9;
    --muted-text: #94a3b8;
    --inverse-text: #0f172a;
    --border: #334155;
    --shadow-color: #000000;
    --icon-pad-bg: #1e293b;
    --art-glow: #7dd3fc;
    --art-glow-opacity: 0.18;
    --art-sheen: #ffffff;
    --art-sheen-opacity: 0.18;
    --art-shadow: #000000;
    --art-shadow-opacity: 0.28;
    --art-muted-line: #64748b;
    --art-panel-tint: #1e293b;
    --accent-1: #a5b4fc;
    --accent-2: #34d399;
    --accent-3: #f472b6;
    --accent-4: #fbbf24;
    --accent-5: #38bdf8;
    --accent-6: #c084fc;
    --accent-7: #f87171;
    --accent-8: #2dd4bf;
    --accent-9: #fb923c;
    --accent-10: #e879f9;
}
:root[data-theme="light"] {
    --background: #f8fafc;
    --panel: #ffffff;
    --primary-text: #0f172a;
    --muted-text: #64748b;
    --inverse-text: #ffffff;
    --border: #e2e8f0;
    --shadow-color: #000000;
    --icon-pad-bg: #1e293b;
    --art-glow: #0891b2;
    --art-glow-opacity: 0.10;
    --art-sheen: #ffffff;
    --art-sheen-opacity: 0.34;
    --art-shadow: #0f172a;
    --art-shadow-opacity: 0.14;
    --art-muted-line: #94a3b8;
    --art-panel-tint: #f1f5f9;
    --accent-1: #4f46e5;
    --accent-2: #059669;
    --accent-3: #db2777;
    --accent-4: #d97706;
    --accent-5: #0284c7;
    --accent-6: #7c3aed;
    --accent-7: #dc2626;
    --accent-8: #0d9488;
    --accent-9: #ea580c;
    --accent-10: #c026d3;
}</style>
  <rect x="0" y="0" width="1.92E+3" height="1.08E+3" fill="#252a34" stroke="none" id="programmatic_background"/>
  <line id="HEADER_DECOR" x1="960.0" x2="1080.0" y1="127.0" y2="127.0" stroke="var(--accent-1)" stroke-width="6" stroke-linecap="round"/>
  <defs>
    <pattern id="svg506b87e3-napkin-hatch" patternUnits="userSpaceOnUse" width="12" height="12">
      <path d="M -3 12 L 12 -3 M 0 15 L 15 0" fill="none" stroke="var(--primary-text)" stroke-width="1" stroke-opacity="0.05"/>
    </pattern>
    <filter id="svg506b87e3-shadow" x="-30%" y="-30%" width="160%" height="160%">
      <feDropShadow dx="0" dy="3" stdDeviation="6" flood-color="#000000" flood-opacity="0.10"/>
      <feDropShadow dx="0" dy="8" stdDeviation="12" flood-color="#000000" flood-opacity="0.16"/>
    </filter>
    <radialGradient id="svg506b87e3-universal-edge-vignette" cx="50%" cy="50%" r="72%">
      <stop offset="0%" stop-color="var(--background)" stop-opacity="0"/>
      <stop offset="72%" stop-color="var(--background)" stop-opacity="0.12"/>
      <stop offset="100%" stop-color="var(--primary-text)" stop-opacity="0.08"/>
    </radialGradient>
    <linearGradient id="svg506b87e3-universal-surface-sheen" x1="0%" y1="0%" x2="100%" y2="100%">
      <stop offset="0%" stop-color="var(--art-sheen)" stop-opacity="var(--art-sheen-opacity)"/>
      <stop offset="46%" stop-color="var(--art-sheen)" stop-opacity="0.035"/>
      <stop offset="100%" stop-color="var(--art-panel-tint)" stop-opacity="0.14"/>
    </linearGradient>
    <radialGradient id="svg506b87e3-universal-icon-aura" cx="50%" cy="42%" r="64%">
      <stop offset="0%" stop-color="var(--art-glow)" stop-opacity="var(--art-glow-opacity)"/>
      <stop offset="100%" stop-color="var(--background)" stop-opacity="0"/>
    </radialGradient>
    <filter id="svg506b87e3-text-glow" x="-20%" y="-20%" width="140%" height="140%">
      <feDropShadow dx="0" dy="0" stdDeviation="2" flood-color="#000000" flood-opacity="0.4"/>
    </filter>
    <marker id="svg506b87e3-arrowhead" markerWidth="10" markerHeight="7" refX="9" refY="3.5" orient="auto" markerUnits="strokeWidth">
      <polygon points="0 0, 10 3.5, 0 7" fill="var(--muted-text)" opacity="0.6"/>
    </marker>
  </defs>
  <rect width="100%" height="100%" fill="var(--background)" id="CANVAS_BG"/>
  <rect width="100%" height="100%" fill="url(#svg506b87e3-napkin-hatch)"/>
  <rect id="UNIVERSAL_EDGE_VIGNETTE" width="100%" height="100%" fill="url(#svg506b87e3-universal-edge-vignette)" opacity="0.62"/>
  <text id="TITLE" x="960.0" y="59" text-anchor="middle" font-size="60" font-weight="800" fill="#0f172a" style="font-size: 60px; font-family: Inter, Segoe UI, Kalam, Roboto, Helvetica, Arial, sans-serif; font-weight: 700; letter-spacing:-1.2px;" data-final-font-size="60">
    <tspan x="960.0" dy="68.00px">Kecksburg Space Acorn Features</tspan>
  </text>
  <rect id="TITLE_FRAME" x="134" y="54" width="1652" height="100" fill="none"/>
  <rect x="150" y="150" width="1620" height="850" rx="40" fill="var(--panel)" fill-opacity="0.18" stroke="var(--muted-text)" stroke-width="2" opacity="0.90"/>
  <line x1="360" y1="212.0" x2="360" y2="938.0" stroke="var(--muted-text)" stroke-width="18" stroke-linecap="round" opacity="0.18"/>
  <line x1="360" y1="212.0" x2="360" y2="938.0" stroke="var(--border)" stroke-width="3" stroke-linecap="round" opacity="0.72"/>
  <g id="DIAGRAM_MAIN">
    <g filter="url(#svg506b87e3-shadow)">
      <line x1="404.0" y1="240.0" x2="420.0" y2="240.0" stroke="var(--accent-1)" stroke-width="5" opacity="0.76" stroke-linecap="round"/>
      <rect id="ITEM_1_BG" x="420.0" y="174.0" width="1085" height="152" rx="22" fill="var(--panel)" fill-opacity="0.97" stroke="var(--accent-1)" stroke-width="2.5"/>
      <rect x="420.0" y="174.0" width="1085" height="152" rx="16" fill="url(#svg506b87e3-universal-surface-sheen)" opacity="0.88"/>
      <rect x="420.0" y="174.0" width="14" height="132" rx="7" fill="var(--accent-1)" fill-opacity="0.90"/>
      <circle id="ITEM_1_PAD" cx="360" cy="240.0" r="46" fill="var(--icon-pad-bg)" opacity="0.95" fill-opacity="0.9" stroke-width="2" stroke="var(--primary-text)"/>
      <circle id="ITEM_1_PAD_INNER" cx="360" cy="240.0" r="35.88" fill="var(--accent-2)" fill-opacity="0.22"/>
      <circle cx="360" cy="240.0" r="38" fill="none" stroke="var(--accent-1)" stroke-width="3" stroke-dasharray="6 4"/>
      <g id="ITEM_1_ICON" transform="translate(324, 204.0)" data-icon-size="72" stroke-dasharray="6 4">
        <g transform="translate(-2.4,-2.4000000000000012) scale(2.4)" vector-effect="non-scaling-stroke" fill="#f1f5f9" fill-opacity="1.0" stroke="none">
          <path fill="#f1f5f9" d="M29 24.184V7.816A3 3 0 0 0 31 5c0-1.654-1.346-3-3-3s-3 1.346-3 3c0 .392.08.763.217 1.106L16 14.171L6.783 6.106A3 3 0 0 0 7 5c0-1.654-1.346-3-3-3S1 3.346 1 5c0 1.302.838 2.401 2 2.815v16.37A2.995 2.995 0 0 0 1 27c0 1.654 1.346 3 3 3s3-1.346 3-3a2.97 2.97 0 0 0-.595-1.775l5.333-4.668l2.365 4.138A2.98 2.98 0 0 0 13 27c0 1.654 1.346 3 3 3s3-1.346 3-3c0-.931-.435-1.754-1.103-2.305l2.365-4.138l5.333 4.667A2.97 2.97 0 0 0 25 27c0 1.654 1.346 3 3 3s3-1.346 3-3a3 3 0 0 0-2-2.816M28 4a1.001 1.001 0 0 1 0 2a1 1 0 0 1 0-2m-3.822 5.673l-4.44 7.77l-2.22-1.943zM14.482 15.5l-2.22 1.942l-4.44-7.77zM4 4a1.001 1.001 0 0 1 0 2a1 1 0 0 1 0-2m0 24a1.001 1.001 0 0 1 0-2a1.001 1.001 0 0 1 0 2m1-4.204V8.766l5.726 10.02zM16 28a1.001 1.001 0 0 1 0-2a1.001 1.001 0 0 1 0 2m0-4.015l-2.726-4.771L16 16.829l2.726 2.385zm11-15.22v15.031l-5.726-5.01zM28 28a1.001 1.001 0 0 1 0-2a1.001 1.001 0 0 1 0 2" vector-effect="non-scaling-stroke" stroke="none"/>
        </g>
      </g>
      <text id="ITEM_1_HEAD" x="500.0" y="192.0" text-anchor="start" font-weight="800" font-size="30" fill="var(--primary-text)" data-bg-id="ITEM_1_BG" fill-opacity="1.0" style="font-size: 30px; font-family: Inter, Segoe UI, Kalam, Roboto, Helvetica, Arial, sans-serif; font-weight: 700; letter-spacing:-0.4px;" data-final-font-size="30">
        <tspan x="500.0" dy="27.13px">Replica Design</tspan>
      </text>
      <rect id="ITEM_1_HEAD_FRAME" x="500" y="192.0" width="760" height="32" fill="none"/>
      <text id="ITEM_1_BODY" x="500.0" y="230.0" text-anchor="start" font-size="24" fill="var(--primary-text)" data-bg-id="ITEM_1_BG" style="font-size: 26px; font-family: Inter, Segoe UI, Kalam, Roboto, Helvetica, Arial, sans-serif; font-weight: 400;" data-final-font-size="26">
        <tspan x="500.0" dy="31.81px">The acorn shape represents the alleged 1965 crash site</tspan>
      </text>
      <rect id="ITEM_1_BODY_FRAME" x="500" y="230.0" width="860" height="72" fill="none"/>
      <text x="1460" y="216.0" text-anchor="end" font-size="18" font-weight="800" fill="var(--accent-1)" opacity="0.70">01</text>
    </g>
    <g filter="url(#svg506b87e3-shadow)">
      <line x1="404.0" y1="407.5" x2="420.0" y2="407.5" stroke="var(--accent-2)" stroke-width="5" opacity="0.76" stroke-linecap="round"/>
      <rect id="ITEM_2_BG" x="420.0" y="341.5" width="1085" height="152" rx="22" fill="var(--panel)" fill-opacity="0.97" stroke="var(--accent-2)" stroke-width="2.5"/>
      <rect x="420.0" y="341.5" width="1085" height="152" rx="16" fill="url(#svg506b87e3-universal-surface-sheen)" opacity="0.88"/>
      <rect x="420.0" y="341.5" width="14" height="132" rx="7" fill="var(--accent-2)" fill-opacity="0.90"/>
      <circle id="ITEM_2_PAD" cx="360" cy="407.5" r="46" fill="var(--icon-pad-bg)" opacity="0.95" fill-opacity="0.9" stroke-width="2" stroke="var(--primary-text)"/>
      <circle id="ITEM_2_PAD_INNER" cx="360" cy="407.5" r="35.88" fill="var(--accent-3)" fill-opacity="0.22"/>
      <circle cx="360" cy="407.5" r="38" fill="none" stroke="var(--accent-2)" stroke-width="3" stroke-dasharray="6 4"/>
      <g id="ITEM_2_ICON" transform="translate(324, 371.5)" data-icon-size="72" stroke-dasharray="6 4">
        <g transform="translate(-4.778761061946904,-5.097345132743363) scale(2.5486725663716814)">
          <path d="M10.3535 3.06063C10.1582 2.86537 10.1582 2.54879 10.3535 2.35352C10.5487 2.15826 10.8653 2.15826 11.0606 2.35352L14.9497 6.24261L14.2426 6.94972L10.3535 3.06063Z" fill="#636363"/>
          <path d="M18.889 2.35348C19.0842 2.15822 19.4008 2.15822 19.5961 2.35348C19.7914 2.54874 19.7914 2.86532 19.5961 3.06058L15.707 6.94967L14.9999 6.24257L18.889 2.35348Z" fill="#636363"/>
          <path d="M11.0002 23.5L8.00024 23L6.46544 28.7279C6.31248 29.2987 6.65125 29.8855 7.22209 30.0385C7.73725 30.1765 8.2754 29.9141 8.48393 29.4232L11.0002 23.5Z" fill="#636363"/>
          <path d="M21.0002 23.5L24.0002 23L25.535 28.7279C25.688 29.2987 25.3492 29.8855 24.7784 30.0385C24.2632 30.1765 23.7251 29.9141 23.5165 29.4232L21.0002 23.5Z" fill="#636363"/>
          <path d="M3 9C3 7.34315 4.34315 6 6 6H26C27.6569 6 29 7.34315 29 9V22C29 23.6569 27.6569 25 26 25H6C4.34315 25 3 23.6569 3 22V9Z" fill="#9B9B9B"/>
          <circle cx="25.75" cy="13.25" r="1.25" fill="#CA0B4A"/>
          <circle cx="25.75" cy="9.25" r="1.25" fill="#636363"/>
          <path d="M6.5 11.5C6.5 10.3954 7.39543 9.5 8.5 9.5H20.5C21.6046 9.5 22.5 10.3954 22.5 11.5V19.5C22.5 20.6046 21.6046 21.5 20.5 21.5H8.5C7.39543 21.5 6.5 20.6046 6.5 19.5V11.5Z" fill="#83CBFF"/>
          <path d="M21 10C21.5523 10 22 10.4477 22 11V20C22 20.5523 21.5523 21 21 21H8C7.44772 21 7 20.5523 7 20V11C7 10.4477 7.44772 10 8 10H21ZM8 9C6.89543 9 6 9.89543 6 11V20C6 21.1046 6.89543 22 8 22H21C22.1046 22 23 21.1046 23 20V11C23 9.89543 22.1046 9 21 9H8Z" fill="#321B41"/>
        </g>
      </g>
      <text id="ITEM_2_HEAD" x="500.0" y="359.5" text-anchor="start" font-weight="800" font-size="30" fill="var(--accent-3)" data-bg-id="ITEM_2_BG" fill-opacity="1.0" style="font-size: 30px; font-family: Inter, Segoe UI, Kalam, Roboto, Helvetica, Arial, sans-serif; font-weight: 700; letter-spacing:-0.4px;" data-final-font-size="30">
        <tspan x="500.0" dy="27.13px">Media Influence</tspan>
      </text>
      <rect id="ITEM_2_HEAD_FRAME" x="500" y="359.5" width="760" height="32" fill="none"/>
      <text id="ITEM_2_BODY" x="500.0" y="397.5" text-anchor="start" font-size="24" fill="var(--primary-text)" data-bg-id="ITEM_2_BG" style="font-size: 26px; font-family: Inter, Segoe UI, Kalam, Roboto, Helvetica, Arial, sans-serif; font-weight: 400;" data-final-font-size="26">
        <tspan x="500.0" dy="31.81px">Television filming helped establish the site as a landmark</tspan>
      </text>
      <rect id="ITEM_2_BODY_FRAME" x="500" y="397.5" width="860" height="72" fill="none"/>
      <text x="1460" y="383.5" text-anchor="end" font-size="18" font-weight="800" fill="var(--accent-2)" opacity="0.70">02</text>
    </g>
    <g filter="url(#svg506b87e3-shadow)">
      <line x1="404.0" y1="575.0" x2="420.0" y2="575.0" stroke="var(--accent-3)" stroke-width="5" opacity="0.76" stroke-linecap="round"/>
      <rect id="ITEM_3_BG" x="420.0" y="509.0" width="1085" height="152" rx="22" fill="var(--panel)" fill-opacity="0.97" stroke="var(--accent-3)" stroke-width="2.5"/>
      <rect x="420.0" y="509.0" width="1085" height="152" rx="16" fill="url(#svg506b87e3-universal-surface-sheen)" opacity="0.88"/>
      <rect x="420.0" y="509.0" width="14" height="132" rx="7" fill="var(--accent-3)" fill-opacity="0.90"/>
      <circle id="ITEM_3_PAD" cx="360" cy="575.0" r="46" fill="var(--icon-pad-bg)" opacity="0.95" fill-opacity="0.9" stroke-width="2" stroke="var(--primary-text)"/>
      <circle id="ITEM_3_PAD_INNER" cx="360" cy="575.0" r="35.88" fill="var(--accent-4)" fill-opacity="0.22"/>
      <circle cx="360" cy="575.0" r="38" fill="none" stroke="var(--accent-3)" stroke-width="3" stroke-dasharray="6 4"/>
      <g id="ITEM_3_ICON" transform="translate(324, 539.0)" data-icon-size="72" stroke-dasharray="6 4">
        <g transform="translate(-5.142857142857143,-5.142857142857143) scale(2.5714285714285716)">
          <path d="M26.32 2H5.67999C3.64999 2 2 3.65 2 5.68V26.32C2 28.35 3.64999 30 5.67999 30H26.32C28.35 30 30 28.35 30 26.32V5.68C30 3.65 28.35 2 26.32 2Z" fill="#533566"/>
          <path d="M12 7.5C12 7.77614 11.7761 8.00001 11.5 8.00001C11.2238 8.00001 11 7.77614 11 7.5C11 7.22386 11.2238 7 11.5 7C11.7761 7 12 7.22386 12 7.5Z" fill="#FFF478"/>
          <path d="M21 25.5C21 25.7761 20.7761 26 20.5 26C20.2238 26 20 25.7761 20 25.5C20 25.2239 20.2238 25 20.5 25C20.7761 25 21 25.2239 21 25.5Z" fill="#FFF478"/>
          <path d="M6.5 13C6.77613 13 7 12.7761 7 12.5C7 12.2239 6.77613 12 6.5 12C6.22387 12 6 12.2239 6 12.5C6 12.7761 6.22387 13 6.5 13Z" fill="#FFF478"/>
          <path d="M26 20.5C26 20.7761 25.7761 21 25.5 21C25.2238 21 25 20.7761 25 20.5C25 20.2239 25.2238 20 25.5 20C25.7761 20 26 20.2239 26 20.5Z" fill="#FFF478"/>
          <path d="M6.5 21C6.77613 21 7 20.7761 7 20.5C7 20.2239 6.77613 20 6.5 20C6.22387 20 6 20.2239 6 20.5C6 20.7761 6.22387 21 6.5 21Z" fill="#FFF478"/>
          <path d="M26 12.5C26 12.7761 25.7761 13 25.5 13C25.2238 13 25 12.7761 25 12.5C25 12.2239 25.2238 12 25.5 12C25.7761 12 26 12.2239 26 12.5Z" fill="#FFF478"/>
          <path d="M11.5 26C11.7762 26 12 25.7761 12 25.5C12 25.2239 11.7762 25 11.5 25C11.2239 25 11 25.2239 11 25.5C11 25.7761 11.2239 26 11.5 26Z" fill="#FFF478"/>
          <path d="M21 7.5C21 7.77614 20.7762 8 20.5 8C20.2239 8 20 7.77614 20 7.5C20 7.22385 20.2239 7 20.5 7C20.7762 7 21 7.22385 21 7.5Z" fill="#FFF478"/>
          <path d="M20.62 16.9444C20.41 16.7544 20.41 16.4244 20.62 16.2344L22.81 14.2544C23.14 13.9544 22.91 13.3944 22.46 13.4244L19.51 13.5744C19.23 13.5844 18.99 13.3544 19.01 13.0744L19.16 10.1244C19.18 9.67439 18.63 9.44438 18.33 9.77438L16.35 11.9644C16.16 12.1744 15.83 12.1744 15.64 11.9644L13.66 9.77438C13.36 9.44438 12.8 9.67439 12.83 10.1244L12.98 13.0744C12.99 13.3544 12.76 13.5944 12.48 13.5744L9.53003 13.4244C9.08003 13.4044 8.85002 13.9544 9.18002 14.2544L11.37 16.2344C11.58 16.4244 11.58 16.7544 11.37 16.9444L9.18002 18.9244C8.85002 19.2244 9.08003 19.7844 9.53003 19.7544L12.48 19.6044C12.76 19.5944 13 19.8244 12.98 20.1044L12.83 23.0544C12.81 23.5044 13.36 23.7344 13.66 23.4044L14.72 22.2344C14.85 22.0944 15.09 22.1844 15.09 22.3744L15.64 27.1044C15.66 27.2844 15.82 27.4244 16 27.4244C16.19 27.4244 16.34 27.2844 16.36 27.1044L16.91 22.3744C16.91 22.1844 17.15 22.0844 17.28 22.2344L18.34 23.4044C18.64 23.7344 19.2 23.5044 19.17 23.0544L19.02 20.1044C19.01 19.8244 19.24 19.5844 19.52 19.6044L22.47 19.7544C22.92 19.7744 23.15 19.2244 22.82 18.9244L20.62 16.9444Z" fill="#FCD53F"/>
          <path d="M15.55 5.48438C15.55 5.73438 15.75 5.93439 16 5.93439C16.25 5.93439 16.45 5.73438 16.45 5.48438V4.69439C16.45 4.44439 16.25 4.24438 16 4.24438C15.75 4.24438 15.55 4.44439 15.55 4.69439V5.48438Z" fill="#F8312F"/>
          <path d="M15.5 10.0844C15.5 10.3344 15.7222 10.5344 16 10.5344C16.2778 10.5344 16.5 10.3244 16.5 10.0844V6.99437C16.5 6.74437 16.2778 6.54437 16 6.54437C15.7222 6.54437 15.5 6.74437 15.5 6.99437V10.0844Z" fill="#F8312F"/>
          <path d="M8.52999 9.0344C8.34999 9.2144 8.07 9.2144 7.89001 9.0344L7.32998 8.4744C7.14998 8.2944 7.14998 8.0144 7.32998 7.8344C7.50998 7.6544 7.78999 7.6544 7.96999 7.8344L8.52999 8.3944C8.69999 8.5644 8.69999 8.8544 8.52999 9.0344Z" fill="#F8312F"/>
          <path d="M11.14 12.2844C11.32 12.4644 11.6 12.4644 11.78 12.2844C11.95 12.1044 11.95 11.8144 11.78 11.6444L9.6 9.46441C9.42 9.28441 9.13998 9.28441 8.95998 9.46441C8.77998 9.64441 8.77998 9.92441 8.95998 10.1044L11.14 12.2844Z" fill="#F8312F"/>
          <path d="M23.46 23.9644C23.64 23.7844 23.92 23.7844 24.1 23.9644L24.66 24.5244C24.84 24.7044 24.84 24.9844 24.66 25.1644C24.48 25.3444 24.2 25.3444 24.02 25.1644L23.46 24.6044C23.29 24.4344 23.29 24.1444 23.46 23.9644Z" fill="#F8312F"/>
          <path d="M20.86 20.7244C20.68 20.5444 20.4 20.5444 20.22 20.7244C20.04 20.8944 20.04 21.1844 20.22 21.3644L22.4 23.5444C22.58 23.7244 22.86 23.7244 23.04 23.5444C23.22 23.3644 23.22 23.0844 23.04 22.9044L20.86 20.7244Z" fill="#F8312F"/>
          <path d="M5.42999 16.5001C5.42999 16.7778 5.23001 16.9999 4.98001 16.9999H4.19C3.94 16.9999 3.73999 16.7778 3.73999 16.5001C3.73999 16.2225 3.94 16.0003 4.19 16.0003H4.98001C5.23001 15.9892 5.42999 16.2114 5.42999 16.5001Z" fill="#F8312F"/>
          <path d="M9.54886 16.9999C9.79949 16.9999 10 16.7778 10 16.5001C10 16.2114 9.78946 15.9892 9.54886 16.0003H6.45111C6.20048 16.0003 6 16.2225 6 16.5001C6 16.7778 6.20048 16.9999 6.45111 16.9999H9.54886Z" fill="#F8312F"/>
          <path d="M26.56 16.4999C26.56 16.2222 26.76 15.9999 27.01 15.9999H27.8C28.05 15.9999 28.25 16.2222 28.25 16.4999C28.25 16.7777 28.05 16.9999 27.8 16.9999H27.01C26.76 16.9999 26.56 16.7777 26.56 16.4999Z" fill="#F8312F"/>
          <path d="M22.4511 15.9999C22.2005 15.9999 22 16.2222 22 16.4999C22 16.7777 22.2105 16.9999 22.4511 16.9999H25.5489C25.7995 16.9999 26 16.7777 26 16.4999C26 16.2222 25.7995 15.9999 25.5489 15.9999H22.4511Z" fill="#F8312F"/>
          <path d="M8.52999 23.9644C8.70999 24.1444 8.70999 24.4244 8.52999 24.6044L7.96999 25.1644C7.78999 25.3444 7.50998 25.3444 7.32998 25.1644C7.14998 24.9844 7.14998 24.7044 7.32998 24.5244L7.89001 23.9644C8.06 23.7944 8.34999 23.7944 8.52999 23.9644Z" fill="#F8312F"/>
          <path d="M11.78 21.3644C11.96 21.1844 11.96 20.9044 11.78 20.7244C11.6 20.5444 11.31 20.5444 11.14 20.7244L8.95998 22.9044C8.77998 23.0844 8.77998 23.3644 8.95998 23.5444C9.13998 23.7244 9.42 23.7244 9.6 23.5444L11.78 21.3644Z" fill="#F8312F"/>
          <path d="M23.46 9.0344C23.28 8.8544 23.28 8.5744 23.46 8.3944L24.02 7.8344C24.2 7.6544 24.48 7.6544 24.66 7.8344C24.84 8.0144 24.84 8.2944 24.66 8.4744L24.1 9.0344C23.93 9.2044 23.64 9.2044 23.46 9.0344Z" fill="#F8312F"/>
          <path d="M20.22 11.6444C20.04 11.8244 20.04 12.1044 20.22 12.2844C20.39 12.4544 20.68 12.4544 20.86 12.2844L23.04 10.1044C23.22 9.92441 23.22 9.64441 23.04 9.46441C22.86 9.28441 22.58 9.28441 22.4 9.46441L20.22 11.6444Z" fill="#F8312F"/>
        </g>
      </g>
      <text id="ITEM_3_HEAD" x="500.0" y="527.0" text-anchor="start" font-weight="800" font-size="30" fill="var(--primary-text)" data-bg-id="ITEM_3_BG" fill-opacity="1.0" style="font-size: 30px; font-family: Inter, Segoe UI, Kalam, Roboto, Helvetica, Arial, sans-serif; font-weight: 700; letter-spacing:-0.4px;" data-final-font-size="30">
        <tspan x="500.0" dy="27.13px">Festival Activities</tspan>
      </text>
      <rect id="ITEM_3_HEAD_FRAME" x="500" y="527.0" width="760" height="32" fill="none"/>
      <text id="ITEM_3_BODY" x="500.0" y="565.0" text-anchor="start" font-size="24" fill="var(--primary-text)" data-bg-id="ITEM_3_BG" style="font-size: 26px; font-family: Inter, Segoe UI, Kalam, Roboto, Helvetica, Arial, sans-serif; font-weight: 400;" data-final-font-size="26">
        <tspan x="500.0" dy="31.81px">Live music and fireworks accompany the UFO theme</tspan>
      </text>
      <rect id="ITEM_3_BODY_FRAME" x="500" y="565.0" width="860" height="72" fill="none"/>
      <text x="1460" y="551.0" text-anchor="end" font-size="18" font-weight="800" fill="var(--accent-3)" opacity="0.70">03</text>
    </g>
    <g filter="url(#svg506b87e3-shadow)">
      <line x1="404.0" y1="742.5" x2="420.0" y2="742.5" stroke="var(--accent-4)" stroke-width="5" opacity="0.76" stroke-linecap="round"/>
      <rect id="ITEM_4_BG" x="420.0" y="676.5" width="1085" height="152" rx="22" fill="var(--panel)" fill-opacity="0.97" stroke="var(--accent-4)" stroke-width="2.5"/>
      <rect x="420.0" y="676.5" width="1085" height="152" rx="16" fill="url(#svg506b87e3-universal-surface-sheen)" opacity="0.88"/>
      <rect x="420.0" y="676.5" width="14" height="132" rx="7" fill="var(--accent-4)" fill-opacity="0.90"/>
      <circle id="ITEM_4_PAD" cx="360" cy="742.5" r="46" fill="var(--icon-pad-bg)" opacity="0.95" fill-opacity="0.9" stroke-width="2" stroke="var(--primary-text)"/>
      <circle id="ITEM_4_PAD_INNER" cx="360" cy="742.5" r="35.88" fill="var(--accent-5)" fill-opacity="0.22"/>
      <circle cx="360" cy="742.5" r="38" fill="none" stroke="var(--accent-4)" stroke-width="3" stroke-dasharray="6 4"/>
      <g id="ITEM_4_ICON" transform="translate(324, 706.5)" data-icon-size="72" stroke-dasharray="6 4">
        <g transform="translate(-6.666666666666666,-6.666666666666666) scale(3.5555555555555554)" vector-effect="non-scaling-stroke" stroke-width="2.58" stroke-linecap="round" stroke-linejoin="round" stroke-opacity="1.0">
          <path d="M12 4a9 9 0 0 1 5.656 16h-11.312a9 9 0 0 1 5.656 -16z" vector-effect="non-scaling-stroke" fill="none" stroke="#f1f5f9"/>
          <path d="M20 9h-8.8a1 1 0 0 0 -.968 1.246c.507 2 1.596 3.418 3.268 4.254c2 1 4.333 1.5 7 1.5" vector-effect="non-scaling-stroke" fill="none" stroke="#f1f5f9"/>
        </g>
      </g>
      <text id="ITEM_4_HEAD" x="500.0" y="694.5" text-anchor="start" font-weight="800" font-size="30" fill="var(--primary-text)" data-bg-id="ITEM_4_BG" fill-opacity="1.0" style="font-size: 30px; font-family: Inter, Segoe UI, Kalam, Roboto, Helvetica, Arial, sans-serif; font-weight: 700; letter-spacing:-0.4px;" data-final-font-size="30">
        <tspan x="500.0" dy="27.13px">Volunteer Management</tspan>
      </text>
      <rect id="ITEM_4_HEAD_FRAME" x="500" y="694.5" width="760" height="32" fill="none"/>
      <text id="ITEM_4_BODY" x="500.0" y="732.5" text-anchor="start" font-size="24" fill="var(--primary-text)" data-bg-id="ITEM_4_BG" style="font-size: 26px; font-family: Inter, Segoe UI, Kalam, Roboto, Helvetica, Arial, sans-serif; font-weight: 400;" data-final-font-size="26">
        <tspan x="500.0" dy="31.81px">Fire department staff organize the annual community gathering</tspan>
      </text>
      <rect id="ITEM_4_BODY_FRAME" x="500" y="732.5" width="860" height="72" fill="none"/>
      <text x="1460" y="718.5" text-anchor="end" font-size="18" font-weight="800" fill="var(--accent-4)" opacity="0.70">04</text>
    </g>
    <g filter="url(#svg506b87e3-shadow)">
      <line x1="404.0" y1="910.0" x2="420.0" y2="910.0" stroke="var(--accent-5)" stroke-width="5" opacity="0.76" stroke-linecap="round"/>
      <rect id="ITEM_5_BG" x="420.0" y="844.0" width="1085" height="152" rx="22" fill="var(--panel)" fill-opacity="0.97" stroke="var(--accent-5)" stroke-width="2.5"/>
      <rect x="420.0" y="844.0" width="1085" height="152" rx="16" fill="url(#svg506b87e3-universal-surface-sheen)" opacity="0.88"/>
      <rect x="420.0" y="844.0" width="14" height="132" rx="7" fill="var(--accent-5)" fill-opacity="0.90"/>
      <circle id="ITEM_5_PAD" cx="360" cy="910.0" r="46" fill="var(--icon-pad-bg)" opacity="0.95" fill-opacity="0.9" stroke-width="2" stroke="var(--primary-text)"/>
      <circle id="ITEM_5_PAD_INNER" cx="360" cy="910.0" r="35.88" fill="var(--accent-6)" fill-opacity="0.22"/>
      <circle cx="360" cy="910.0" r="38" fill="none" stroke="var(--accent-5)" stroke-width="3" stroke-dasharray="6 4"/>
      <g id="ITEM_5_ICON" transform="translate(324, 874.0)" data-icon-size="72" stroke-dasharray="6 4">
        <g transform="translate(-8.307692307692307,-8.307692307692303) scale(0.34615384615384615)" vector-effect="non-scaling-stroke" stroke-width="2.58" stroke-linecap="round" stroke-linejoin="round" stroke-opacity="1.0">
          <polyline points="48 139.59 48 216 208 216 208 139.59" fill="none" stroke="#f1f5f9" vector-effect="non-scaling-stroke"/>
          <path d="M54,40H202a8,8,0,0,1,7.69,5.8L224,96H32L46.34,45.8A8,8,0,0,1,54,40Z" fill="none" stroke="#f1f5f9" vector-effect="non-scaling-stroke"/>
          <path d="M96,96v16a32,32,0,0,1-64,0V96" fill="none" stroke="#f1f5f9" vector-effect="non-scaling-stroke"/>
          <path d="M160,96v16a32,32,0,0,1-64,0V96" fill="none" stroke="#f1f5f9" vector-effect="non-scaling-stroke"/>
          <path d="M224,96v16a32,32,0,0,1-64,0V96" fill="none" stroke="#f1f5f9" vector-effect="non-scaling-stroke"/>
        </g>
      </g>
      <text id="ITEM_5_HEAD" x="500.0" y="862.0" text-anchor="start" font-weight="800" font-size="30" fill="var(--accent-6)" data-bg-id="ITEM_5_BG" fill-opacity="1.0" style="font-size: 30px; font-family: Inter, Segoe UI, Kalam, Roboto, Helvetica, Arial, sans-serif; font-weight: 700; letter-spacing:-0.4px;" data-final-font-size="30">
        <tspan x="500.0" dy="27.13px">Public Interaction</tspan>
      </text>
      <rect id="ITEM_5_HEAD_FRAME" x="500" y="862.0" width="760" height="32" fill="none"/>
      <text id="ITEM_5_BODY" x="500.0" y="900.0" text-anchor="start" font-size="24" fill="var(--primary-text)" data-bg-id="ITEM_5_BG" style="font-size: 26px; font-family: Inter, Segoe UI, Kalam, Roboto, Helvetica, Arial, sans-serif; font-weight: 400;" data-final-font-size="26">
        <tspan x="500.0" dy="31.81px">Visitors engage with displays and local store merch and ise</tspan>
      </text>
      <rect id="ITEM_5_BODY_FRAME" x="500" y="900.0" width="860" height="72" fill="none"/>
      <text x="1460" y="886.0" text-anchor="end" font-size="18" font-weight="800" fill="var(--accent-5)" opacity="0.70">05</text>
    </g>
  </g>
</svg>
