<?xml version='1.0' encoding='utf-8'?>
<svg xmlns="http://www.w3.org/2000/svg" width="1920" height="1080" viewBox="0 0 1920 1080" data-theme="dark">
  <style>
        @font-face {
            font-family: 'Inter';
            src: url('assets/fonts/Inter-Regular.ttf') format('truetype');
            font-weight: 400;
            font-style: normal;
            font-display: swap;
        }
        @font-face {
            font-family: 'Inter';
            src: url('assets/fonts/Inter-Bold.ttf') format('truetype');
            font-weight: 600;
            font-style: normal;
            font-display: swap;
        }
        @font-face {
            font-family: 'Inter';
            src: url('assets/fonts/Inter-Bold.ttf') format('truetype');
            font-weight: 800;
            font-style: normal;
            font-display: swap;
        }
        
:root {
    --background: #0f172a;
    --panel: #1e293b;
    --primary-text: #f1f5f9;
    --muted-text: #94a3b8;
    --inverse-text: #0f172a;
    --border: #334155;
    --shadow-color: #000000;
    --icon-pad-bg: #1e293b;
    --art-glow: #7dd3fc;
    --art-glow-opacity: 0.18;
    --art-sheen: #ffffff;
    --art-sheen-opacity: 0.18;
    --art-shadow: #000000;
    --art-shadow-opacity: 0.28;
    --art-muted-line: #64748b;
    --art-panel-tint: #1e293b;
    --font-family: 'Inter', 'Segoe UI', 'Kalam', Roboto, Helvetica, Arial, sans-serif;
    --radius-xl: 16px;
    --font-family-headline: 'Inter', 'Segoe UI', 'Kalam', Roboto, Helvetica, Arial, sans-serif;
    --font-family-body: 'Inter', 'Segoe UI', 'Kalam', Roboto, Helvetica, Arial, sans-serif;
    --font-heading: 'Inter', 'Segoe UI', 'Kalam', Roboto, Helvetica, Arial, sans-serif;
    --font-body: 'Inter', 'Segoe UI', 'Kalam', Roboto, Helvetica, Arial, sans-serif;
    --font-size-h1: 56px;
    --font-size-h2: 40px;
    --font-size-h3: 28px;
    --font-size-body: 24px;
    --font-size-caption: 18px;
    --secondary-text: var(--muted-text);
    --panel-border: var(--border);
    --font-weight-normal: 400;
    --font-weight-medium: 500;
    --font-weight-semibold: 600;
    --font-weight-bold: 700;
    --spacing-gutter-pct: 0.07;
    --spacing-top-pct: 0.15;
    --spacing-bottom-pct: 0.07;
    --spacing-title-y-pct: 0.055;
    --accent-1: #22d3ee;
    --accent-2: #38bdf8;
    --accent-3: #60a5fa;
    --accent-4: #818cf8;
    --accent-5: #a78bfa;
    --accent-6: #2dd4bf;
}
:root[data-theme="dark"] {
    --background: #0f172a;
    --panel: #1e293b;
    --primary-text: #f1f5f9;
    --muted-text: #94a3b8;
    --inverse-text: #0f172a;
    --border: #334155;
    --shadow-color: #000000;
    --icon-pad-bg: #1e293b;
    --art-glow: #7dd3fc;
    --art-glow-opacity: 0.18;
    --art-sheen: #ffffff;
    --art-sheen-opacity: 0.18;
    --art-shadow: #000000;
    --art-shadow-opacity: 0.28;
    --art-muted-line: #64748b;
    --art-panel-tint: #1e293b;
    --accent-1: #22d3ee;
    --accent-2: #38bdf8;
    --accent-3: #60a5fa;
    --accent-4: #818cf8;
    --accent-5: #a78bfa;
    --accent-6: #2dd4bf;
}
:root[data-theme="light"] {
    --background: #f8fafc;
    --panel: #ffffff;
    --primary-text: #0f172a;
    --muted-text: #64748b;
    --inverse-text: #ffffff;
    --border: #e2e8f0;
    --shadow-color: #000000;
    --icon-pad-bg: #1e293b;
    --art-glow: #0891b2;
    --art-glow-opacity: 0.10;
    --art-sheen: #ffffff;
    --art-sheen-opacity: 0.34;
    --art-shadow: #0f172a;
    --art-shadow-opacity: 0.14;
    --art-muted-line: #94a3b8;
    --art-panel-tint: #f1f5f9;
    --accent-1: #0891b2;
    --accent-2: #0284c7;
    --accent-3: #2563eb;
    --accent-4: #4f46e5;
    --accent-5: #7c3aed;
    --accent-6: #0d9488;
}</style>
  <rect x="0" y="0" width="1.92E+3" height="1.08E+3" fill="#252a34" stroke="none" id="programmatic_background"/>
  <line id="HEADER_DECOR" x1="960.0" x2="1080.0" y1="95.0" y2="95.0" stroke="var(--accent-1)" stroke-width="6" stroke-linecap="round"/>
  <defs>
    <pattern id="svg6e8d7e02-napkin-hatch" patternUnits="userSpaceOnUse" width="12" height="12">
      <path d="M -3 12 L 12 -3 M 0 15 L 15 0" fill="none" stroke="var(--primary-text)" stroke-width="1" stroke-opacity="0.05"/>
    </pattern>
    <filter id="svg6e8d7e02-shadow" x="-30%" y="-30%" width="160%" height="160%">
      <feDropShadow dx="0" dy="4" stdDeviation="5" flood-color="#000000" flood-opacity="0.15"/>
    </filter>
    <filter id="svg6e8d7e02-text-glow" x="-20%" y="-20%" width="140%" height="140%">
      <feDropShadow dx="0" dy="0" stdDeviation="3" flood-color="#000000" flood-opacity="0.8"/>
    </filter>
    <radialGradient id="svg6e8d7e02-universal-edge-vignette" cx="50%" cy="50%" r="72%">
      <stop offset="0%" stop-color="var(--background)" stop-opacity="0"/>
      <stop offset="72%" stop-color="var(--background)" stop-opacity="0.12"/>
      <stop offset="100%" stop-color="var(--primary-text)" stop-opacity="0.08"/>
    </radialGradient>
    <linearGradient id="svg6e8d7e02-universal-surface-sheen" x1="0%" y1="0%" x2="100%" y2="100%">
      <stop offset="0%" stop-color="var(--art-sheen)" stop-opacity="var(--art-sheen-opacity)"/>
      <stop offset="46%" stop-color="var(--art-sheen)" stop-opacity="0.035"/>
      <stop offset="100%" stop-color="var(--art-panel-tint)" stop-opacity="0.14"/>
    </linearGradient>
    <radialGradient id="svg6e8d7e02-universal-icon-aura" cx="50%" cy="42%" r="64%">
      <stop offset="0%" stop-color="var(--art-glow)" stop-opacity="var(--art-glow-opacity)"/>
      <stop offset="100%" stop-color="var(--background)" stop-opacity="0"/>
    </radialGradient>
    <linearGradient id="svg6e8d7e02-earth-core-horizon" x1="0%" y1="0%" x2="0%" y2="100%">
      <stop offset="0%" stop-color="var(--accent-2)" stop-opacity="0.12"/>
      <stop offset="100%" stop-color="var(--background)" stop-opacity="0"/>
    </linearGradient>
    <marker id="svg6e8d7e02-arrowhead" markerWidth="10" markerHeight="7" refX="9" refY="3.5" orient="auto" markerUnits="strokeWidth">
      <polygon points="0 0, 10 3.5, 0 7" fill="var(--muted-text)" opacity="0.6"/>
    </marker>
  </defs>
  <rect width="100%" height="100%" fill="var(--background)" id="CANVAS_BG"/>
  <rect width="100%" height="100%" fill="url(#svg6e8d7e02-napkin-hatch)"/>
  <rect id="UNIVERSAL_EDGE_VIGNETTE" width="100%" height="100%" fill="url(#svg6e8d7e02-universal-edge-vignette)" opacity="0.62"/>
  <rect id="TITLE_FRAME" x="134" y="30" width="1652" height="70" fill="none"/>
  <text id="TITLE" x="960.0" y="59" font-size="48" font-weight="700" fill="#f1f5f9" text-anchor="middle" style="font-size: 60px; font-family: Inter, Segoe UI, Kalam, Roboto, Helvetica, Arial, sans-serif; font-weight: 700; letter-spacing:-1.2px;" data-final-font-size="60">
    <tspan x="960.0" dy="68.00px">Root Causes of Public Mistrust</tspan>
  </text>
  <g id="DIAGRAM_MAIN">
    <rect id="EARTH_CORE_HORIZON" x="0" y="120" width="1920" height="380" fill="url(#svg6e8d7e02-earth-core-horizon)" opacity="0.80"/>
    <path id="EARTH_CORE_SURFACE_GLINT" d="M 236 286 C 622 236 1298 236 1684 286" fill="none" stroke="var(--inverse-text)" stroke-width="2" stroke-opacity="0.12" stroke-linecap="round"/>
    <!-- Layer 1 -->
    <circle id="ITEM_1_BG_RING" cx="960" cy="2200" r="1950" fill="var(--accent-2)" fill-opacity="0.18" stroke="var(--accent-2)" stroke-width="2" stroke-dasharray="10 10" stroke-opacity="1.0"/>
    <!-- Layer 2 -->
    <circle id="ITEM_2_BG_RING" cx="960" cy="2200" r="1800" fill="var(--accent-3)" fill-opacity="0.26" stroke="var(--accent-3)" stroke-width="2" stroke-dasharray="10 10" stroke-opacity="1.0"/>
    <!-- Layer 3 -->
    <circle id="ITEM_3_BG_RING" cx="960" cy="2200" r="1650" fill="var(--accent-4)" fill-opacity="0.3400000000000001" stroke="var(--accent-4)" stroke-width="2" stroke-dasharray="10 10" stroke-opacity="1.0"/>
    <!-- Layer 4 -->
    <circle id="ITEM_4_BG_RING" cx="960" cy="2200" r="1500" fill="var(--accent-5)" fill-opacity="0.42000000000000004" stroke="var(--accent-5)" stroke-width="2" stroke-dasharray="10 10" stroke-opacity="1.0"/>
    <!-- Layer 5 -->
    <circle id="ITEM_5_BG_RING" cx="960" cy="2200" r="1350" fill="var(--accent-6)" fill-opacity="0.5" stroke="var(--accent-6)" stroke-width="2" stroke-dasharray="10 10" stroke-opacity="1.0"/>
    <!-- Central Axis Line -->
    <line x1="960" y1="200" x2="960" y2="1050" stroke="var(--primary-text)" stroke-width="4" stroke-dasharray="16 12" stroke-linecap="round" opacity="0.3"/>
    <circle cx="960" cy="250.0" r="64" fill="url(#svg6e8d7e02-universal-icon-aura)" opacity="0.82"/>
    <g transform="translate(960, 250.0)">
      <circle id="ITEM_1_STROKE" cx="0" cy="0" r="37" fill="transparent" stroke="var(--accent-2)" stroke-width="3" stroke-opacity="1.0"/>
      <circle id="ITEM_1_BORDER" cx="0" cy="0" r="45" fill="transparent" stroke="var(--accent-2)" stroke-width="3" stroke-dasharray="6 4" stroke-opacity="1.0"/>
      <circle id="ITEM_1_PAD" cx="0.00" cy="0.00" r="40.00" fill="var(--icon-pad-bg)" stroke="var(--primary-text)" stroke-width="2" opacity="0.9"/>
      <circle id="ITEM_1_PAD_INNER" cx="0.00" cy="0.00" r="31.20" fill="var(--accent-2)" fill-opacity="0.22"/>
      <g id="ITEM_1_ICON" transform="translate(-25, -25)" data-icon-size="50" stroke-dasharray="6 4">
        <g transform="translate(-10.617699115044255,-11.998230088495582) scale(2.2088495575221243)">
          <path d="M5 27.99C5 28.75 5.61 29.36 6.37 29.36C7.13 29.36 7.74 28.75 7.74 27.99V26.62H5V27.99ZM24.15 27.99C24.15 28.75 24.76 29.36 25.52 29.36C26.27 29.36 26.89 28.75 26.89 27.99V26.62H24.15V27.99Z" fill="#212121"/>
          <path d="M27 5C27 5.55228 26.5523 6 26 6C25.7251 6 25.4761 5.88908 25.2954 5.70956L7.9667 9.12058L7.77356 8.1394L25.0336 4.74189C25.1474 4.3147 25.537 4 26 4C26.5523 4 27 4.44772 27 5Z" fill="#9B9B9B"/>
          <path d="M6.84005 11.85C7.96671 11.85 8.88005 10.9367 8.88005 9.81002C8.88005 8.68336 7.96671 7.77002 6.84005 7.77002C5.71338 7.77002 4.80005 8.68336 4.80005 9.81002C4.80005 10.9367 5.71338 11.85 6.84005 11.85Z" fill="#D3D3D3"/>
          <path d="M27.38 9.81006H4.63C3.18 9.81006 2 10.9901 2 12.4401V24.6901C2 26.1401 3.18 27.3201 4.63 27.3201H27.38C28.83 27.3201 30.01 26.1401 30.01 24.6901V12.4301C30 10.9801 28.83 9.81006 27.38 9.81006Z" fill="#9B9B9B"/>
          <path d="M26.32 12.76H18.45C17.79 12.76 17.25 13.3 17.25 13.96V18.79C17.25 19.45 17.79 19.99 18.45 19.99H26.32C26.98 19.99 27.52 19.45 27.52 18.79V13.96C27.52 13.3 26.98 12.76 26.32 12.76Z" fill="#83CBFF"/>
          <path d="M19.88 15.83C19.44 15.83 19.09 16.19 19.09 16.62V19.98H20.68V16.62C20.67 16.19 20.32 15.83 19.88 15.83Z" fill="#F8312F"/>
          <path d="M14.83 14.12C15.2 14.12 15.51 13.82 15.51 13.44C15.51 13.07 15.21 12.76 14.83 12.76H5.18C4.81 12.76 4.5 13.06 4.5 13.44C4.5 13.81 4.8 14.12 5.18 14.12H14.83ZM15.51 15.96C15.51 16.34 15.2 16.64 14.83 16.64H5.18C4.8 16.64 4.5 16.33 4.5 15.96C4.5 15.58 4.81 15.28 5.18 15.28H14.83C15.21 15.27 15.51 15.58 15.51 15.96ZM14.83 19.15C15.2 19.15 15.51 18.85 15.51 18.47C15.51 18.1 15.21 17.79 14.83 17.79H5.18C4.81 17.79 4.5 18.09 4.5 18.47C4.5 18.84 4.8 19.15 5.18 19.15H14.83ZM15.51 20.9901C15.51 21.3701 15.2 21.6701 14.83 21.6701H5.18C4.8 21.6701 4.5 21.3601 4.5 20.9901C4.5 20.6101 4.81 20.3101 5.18 20.3101H14.83C15.21 20.3 15.51 20.6101 15.51 20.9901ZM15.51 23.5001C15.51 23.8801 15.2 24.1801 14.83 24.1801H5.18C4.8 24.1801 4.5 23.8701 4.5 23.5001C4.5 23.1201 4.81 22.8201 5.18 22.8201H14.83C15.21 22.8201 15.51 23.1301 15.51 23.5001Z" fill="#212121"/>
          <path d="M21.04 22.9199C21.04 23.6103 20.4804 24.1699 19.79 24.1699C19.0997 24.1699 18.54 23.6103 18.54 22.9199C18.54 22.2296 19.0997 21.6699 19.79 21.6699C20.4804 21.6699 21.04 22.2296 21.04 22.9199ZM26.6201 22.9199C26.6201 23.6103 26.0605 24.1699 25.3701 24.1699C24.6798 24.1699 24.1201 23.6103 24.1201 22.9199C24.1201 22.2296 24.6798 21.6699 25.3701 21.6699C26.0605 21.6699 26.6201 22.2296 26.6201 22.9199Z" fill="#F4F4F4"/>
        </g>
      </g>
    </g>
    <!-- Connector -->
    <line id="ITEM_1_CONN" x1="920" y1="250.0" x2="670.0" y2="250.0" stroke="var(--accent-2)" stroke-width="2" stroke-dasharray="4 4" opacity="0.6" stroke-opacity="1.0"/>
    <circle cx="670.0" cy="250.0" r="5" fill="var(--accent-1)"/>
    <!-- Rigid text block -->
    <!-- _FRAME guarantees text wraps neatly within text_w -->
    <rect id="ITEM_1_TEXT_BG" x="32.0" y="159.0" width="636.0" height="207.0" rx="22" fill="var(--panel)" fill-opacity="0.94" stroke="var(--primary-text)" stroke-opacity="0.12" stroke-width="1.5"/>
    <rect x="32.0" y="159.0" width="636.0" height="207.0" rx="16" fill="url(#svg6e8d7e02-universal-surface-sheen)" opacity="0.76"/>
    <rect id="ITEM_1_HEAD_FRAME" x="50.0" y="175.0" width="600" height="45" fill="none"/>
    <text id="ITEM_1_HEAD" data-bg-id="ITEM_1_TEXT_BG" x="650.0" y="175.0" font-weight="bold" font-size="28" fill="var(--accent-2)" text-anchor="end" fill-opacity="1.0" stroke="none" style="font-size: 30px; font-family: Inter, Segoe UI, Kalam, Roboto, Helvetica, Arial, sans-serif; font-weight: 700; letter-spacing:-0.4px;" data-final-font-size="30">
      <tspan x="650.0" dy="30.75px">Visible Urgency</tspan>
    </text>
    <rect id="ITEM_1_BODY_FRAME" x="50.0" y="265.0" width="600" height="85" fill="none"/>
    <text id="ITEM_1_BODY" data-bg-id="ITEM_1_TEXT_BG" x="650.0" y="265.0" font-size="20" fill="var(--primary-text)" text-anchor="end" style="font-size: 26px; font-family: Inter, Segoe UI, Kalam, Roboto, Helvetica, Arial, sans-serif; font-weight: 400;" data-final-font-size="26">
      <tspan x="650.0" dy="25.84px">Rapid military response suggested a high-</tspan>
      <tspan x="650.0" dy="29.90px">priority situation</tspan>
    </text>
    <circle cx="960" cy="425.0" r="64" fill="url(#svg6e8d7e02-universal-icon-aura)" opacity="0.82"/>
    <g transform="translate(960, 425.0)">
      <circle id="ITEM_2_STROKE" cx="0" cy="0" r="37" fill="transparent" stroke="var(--accent-3)" stroke-width="3" stroke-opacity="1.0"/>
      <circle id="ITEM_2_BORDER" cx="0" cy="0" r="45" fill="transparent" stroke="var(--accent-3)" stroke-width="3" stroke-dasharray="6 4" stroke-opacity="1.0"/>
      <circle id="ITEM_2_PAD" cx="0.00" cy="0.00" r="40.00" fill="var(--icon-pad-bg)" stroke="var(--primary-text)" stroke-width="2" opacity="0.9"/>
      <circle id="ITEM_2_PAD_INNER" cx="0.00" cy="0.00" r="31.20" fill="var(--accent-3)" fill-opacity="0.22"/>
      <g id="ITEM_2_ICON" transform="translate(-25, -25)" data-icon-size="50" stroke-dasharray="6 4">
        <g transform="translate(-10.6972972972973,-13.50810810810811) scale(0.14054054054054055)" vector-effect="non-scaling-stroke" fill="#f1f5f9" fill-opacity="1.0" stroke="none">
          <path fill="#f1f5f9" d="M281.293 94.283a9 9 0 0 1-.23.203c-.027.023-.048.046-.073.07c.113-.103.143-.126.303-.273m.754.62c-.922-.026-1.59.26-1.79.333c-18.276 16.014-26.02 33.42-43.35 51.993c-17.25 18.485-43.688 36.204-96.677 51.225l-31.087 42.13a9 9 0 0 1-7.163 3.657l-50.75.45l-14.69-8.344l-2.622 119.744l14.603-8.426h57.28a9 9 0 0 1 6.934 3.264c13.526 16.35 20.025 32.04 37.946 39.838l200.556 61.878c12.478-.538 22.443-2.015 28.625-5.568c5.266-3.025 8.892-7.468 10.952-16.584c-5.457-2.305-23.53-9.945-47.185-19.853c-13.495-5.652-27.03-11.294-37.236-15.494c-5.103-2.1-9.382-3.842-12.37-5.027a161 161 0 0 0-3.397-1.317c-.208-.077-.253-.09-.367-.13c-.157.023-.3.105-1.897-.677c-.994-.486-4.692-10.586-4.692-10.588c0 0 5.642-6.027 6.47-6.234c2.54-.635 2.98-.25 3.483-.18c.2.028.253.05.388.074c.13.016.294.036.637.073c.89.095 2.327.236 4.183.41c3.713.345 9.13.827 15.67 1.397c13.082 1.14 30.68 2.633 48.37 4.112c17.69 1.477 35.475 2.942 48.945 4.03c6.734.544 12.392.992 16.406 1.3c2.006.155 3.606.275 4.702.352c.445.03.74.05 1 .065c7.954-.59 12.096-2.93 14.38-5.373c2.315-2.48 3.274-5.563 3.075-9.477c-.392-7.7-6.855-16.7-13.162-18.697l-125.047-16.39a9 9 0 0 1 .357-17.886s34.4-3.114 69.246-6.35c17.425-1.62 34.963-3.27 48.35-4.575c6.695-.654 12.355-1.22 16.42-1.652c2.03-.215 3.67-.397 4.798-.533c.516-.062 1.142-.195 1.516-.27c10.906-3.095 16.196-7.17 18.164-10.054c2.01-2.944 1.993-5.088.517-8.644c-2.946-7.1-15.285-15.783-23.27-16.322l-140.36-3.662a9 9 0 0 1-1.555-17.817s30.514-6.195 61.904-12.542c15.695-3.174 31.608-6.386 44.04-8.88c12.434-2.496 20.85-4.184 23.35-4.617c9.49-1.643 13.86-5.275 16.143-9.164c2.282-3.888 2.655-8.88.996-14.175c-2.902-9.267-11.46-17.814-23.172-18.067a26 26 0 0 0-5.204.422l-.19.03l-148.954 23.665c-7.51 10.38-14.5 15.897-23.953 22.977c-2.022 57.078-12.448 85.543-27.33 100.578c-15.283 15.436-34.4 14.424-40.335 15.908l-4.368-17.46c12.134-3.035 21.968-1.066 31.91-11.11s20.786-34.636 22.338-92.803a9 9 0 0 1 3.606-6.965c12.425-9.295 17.212-12.277 25.073-23.886l35.527-78.43c-1.064-7.994-5.013-11.687-9.64-13.893c-2.5-1.192-5.197-1.74-7.043-1.79z" vector-effect="non-scaling-stroke" stroke="none"/>
        </g>
      </g>
    </g>
    <!-- Connector -->
    <line id="ITEM_2_CONN" x1="1000" y1="425.0" x2="1250.0" y2="425.0" stroke="var(--accent-3)" stroke-width="2" stroke-dasharray="4 4" opacity="0.6" stroke-opacity="1.0"/>
    <circle cx="1250.0" cy="425.0" r="5" fill="var(--accent-2)"/>
    <!-- Rigid text block -->
    <!-- _FRAME guarantees text wraps neatly within text_w -->
    <rect id="ITEM_2_TEXT_BG" x="1252.0" y="334.0" width="636.0" height="207.0" rx="22" fill="var(--panel)" fill-opacity="0.94" stroke="var(--primary-text)" stroke-opacity="0.12" stroke-width="1.5"/>
    <rect x="1252.0" y="334.0" width="636.0" height="207.0" rx="16" fill="url(#svg6e8d7e02-universal-surface-sheen)" opacity="0.76"/>
    <rect id="ITEM_2_HEAD_FRAME" x="1270.0" y="350.0" width="600" height="45" fill="none"/>
    <text id="ITEM_2_HEAD" data-bg-id="ITEM_2_TEXT_BG" x="1270.0" y="350.0" font-weight="bold" font-size="28" fill="var(--accent-3)" text-anchor="start" fill-opacity="1.0" stroke="none" style="font-size: 30px; font-family: Inter, Segoe UI, Kalam, Roboto, Helvetica, Arial, sans-serif; font-weight: 700; letter-spacing:-0.4px;" data-final-font-size="30">
      <tspan x="1270.0" dy="30.75px">Inconsistent Narrative</tspan>
    </text>
    <rect id="ITEM_2_BODY_FRAME" x="1270.0" y="440.0" width="600" height="85" fill="none"/>
    <text id="ITEM_2_BODY" data-bg-id="ITEM_2_TEXT_BG" x="1270.0" y="440.0" font-size="20" fill="var(--primary-text)" text-anchor="start" style="font-size: 26px; font-family: Inter, Segoe UI, Kalam, Roboto, Helvetica, Arial, sans-serif; font-weight: 400;" data-final-font-size="26">
      <tspan x="1270.0" dy="25.84px">Official claims of nothing found contradicted</tspan>
      <tspan x="1270.0" dy="29.90px">the heavy response</tspan>
    </text>
    <circle cx="960" cy="600.0" r="64" fill="url(#svg6e8d7e02-universal-icon-aura)" opacity="0.82"/>
    <g transform="translate(960, 600.0)">
      <circle id="ITEM_3_STROKE" cx="0" cy="0" r="37" fill="transparent" stroke="var(--accent-4)" stroke-width="3" stroke-opacity="1.0"/>
      <circle id="ITEM_3_BORDER" cx="0" cy="0" r="45" fill="transparent" stroke="var(--accent-4)" stroke-width="3" stroke-dasharray="6 4" stroke-opacity="1.0"/>
      <circle id="ITEM_3_PAD" cx="0.00" cy="0.00" r="40.00" fill="var(--icon-pad-bg)" stroke="var(--primary-text)" stroke-width="2" opacity="0.9"/>
      <circle id="ITEM_3_PAD_INNER" cx="0.00" cy="0.00" r="31.20" fill="var(--accent-4)" fill-opacity="0.22"/>
      <g id="ITEM_3_ICON" transform="translate(-25, -25)" data-icon-size="50" stroke-dasharray="6 4">
        <g transform="translate(-8.844067796610172,-8.844067796610172) scale(2.820338983050848)" vector-effect="non-scaling-stroke" stroke-width="2.31" stroke-linecap="round" stroke-linejoin="round" stroke-opacity="1.0">
          <path d="M4 3 2 5v15c0 .6.4 1 1 1h2c.6 0 1-.4 1-1V5Z" vector-effect="non-scaling-stroke" fill="none" stroke="#f1f5f9"/>
          <path d="M6 8h4" vector-effect="non-scaling-stroke" fill="none" stroke="#f1f5f9"/>
          <path d="M6 18h4" vector-effect="non-scaling-stroke" fill="none" stroke="#f1f5f9"/>
          <path d="m12 3-2 2v15c0 .6.4 1 1 1h2c.6 0 1-.4 1-1V5Z" vector-effect="non-scaling-stroke" fill="none" stroke="#f1f5f9"/>
          <path d="M14 8h4" vector-effect="non-scaling-stroke" fill="none" stroke="#f1f5f9"/>
          <path d="M14 18h4" vector-effect="non-scaling-stroke" fill="none" stroke="#f1f5f9"/>
          <path d="m20 3-2 2v15c0 .6.4 1 1 1h2c.6 0 1-.4 1-1V5Z" vector-effect="non-scaling-stroke" fill="none" stroke="#f1f5f9"/>
        </g>
      </g>
    </g>
    <!-- Connector -->
    <line id="ITEM_3_CONN" x1="920" y1="600.0" x2="670.0" y2="600.0" stroke="var(--accent-4)" stroke-width="2" stroke-dasharray="4 4" opacity="0.6" stroke-opacity="1.0"/>
    <circle cx="670.0" cy="600.0" r="5" fill="var(--accent-3)"/>
    <!-- Rigid text block -->
    <!-- _FRAME guarantees text wraps neatly within text_w -->
    <rect id="ITEM_3_TEXT_BG" x="32.0" y="509.0" width="636.0" height="207.0" rx="22" fill="var(--panel)" fill-opacity="0.94" stroke="var(--primary-text)" stroke-opacity="0.12" stroke-width="1.5"/>
    <rect x="32.0" y="509.0" width="636.0" height="207.0" rx="16" fill="url(#svg6e8d7e02-universal-surface-sheen)" opacity="0.76"/>
    <rect id="ITEM_3_HEAD_FRAME" x="50.0" y="525.0" width="600" height="45" fill="none"/>
    <text id="ITEM_3_HEAD" data-bg-id="ITEM_3_TEXT_BG" x="650.0" y="525.0" font-weight="bold" font-size="28" fill="var(--accent-4)" text-anchor="end" fill-opacity="1.0" stroke="none" style="font-size: 30px; font-family: Inter, Segoe UI, Kalam, Roboto, Helvetica, Arial, sans-serif; font-weight: 700; letter-spacing:-0.4px;" data-final-font-size="30">
      <tspan x="650.0" dy="30.75px">Operational Secrecy</tspan>
    </text>
    <rect id="ITEM_3_BODY_FRAME" x="50.0" y="615.0" width="600" height="85" fill="none"/>
    <text id="ITEM_3_BODY" data-bg-id="ITEM_3_TEXT_BG" x="650.0" y="615.0" font-size="20" fill="var(--primary-text)" text-anchor="end" style="font-size: 26px; font-family: Inter, Segoe UI, Kalam, Roboto, Helvetica, Arial, sans-serif; font-weight: 400;" data-final-font-size="26">
      <tspan x="650.0" dy="25.84px">Standard emergency perimeters were interpreted</tspan>
      <tspan x="650.0" dy="29.90px">as hidden agendas</tspan>
    </text>
    <circle cx="960" cy="775.0" r="64" fill="url(#svg6e8d7e02-universal-icon-aura)" opacity="0.82"/>
    <g transform="translate(960, 775.0)">
      <circle id="ITEM_4_STROKE" cx="0" cy="0" r="37" fill="transparent" stroke="var(--accent-5)" stroke-width="3" stroke-opacity="1.0"/>
      <circle id="ITEM_4_BORDER" cx="0" cy="0" r="45" fill="transparent" stroke="var(--accent-5)" stroke-width="3" stroke-dasharray="6 4" stroke-opacity="1.0"/>
      <circle id="ITEM_4_PAD" cx="0.00" cy="0.00" r="40.00" fill="var(--icon-pad-bg)" stroke="var(--primary-text)" stroke-width="2" opacity="0.9"/>
      <circle id="ITEM_4_PAD_INNER" cx="0.00" cy="0.00" r="31.20" fill="var(--accent-5)" fill-opacity="0.22"/>
      <g id="ITEM_4_ICON" transform="translate(-25, -25)" data-icon-size="50" stroke-dasharray="6 4">
        <g transform="translate(-7.721951219512194,-7.468292682926828) scale(0.5073170731707317)">
          <path fill="#82AEC0" d="M54.8 85.4c-.4.5-.5 1.2-.1 1.7c2.3 2.7 9.5 11.3 10.7 13c1.4 1.8 0 3.1-.8 3.9c-27.1 27.4-47 20.6-53.4 19.4c-4.1-.8-6-2.8-6.6-6.7c-1.2-8.3-5.1-27.7 21.3-53c1.4-1.3 2.9-1.2 4-.3c.9.7 9.6 8.8 12.1 11.2c.4.4 1 .3 1.4 0c.9-.9 2.5-2.5 3.2-3.1c3.6-3.1 14.7 7.6 11 11.1z"/>
          <path id="SVGI2NChb5k" d="M54.8 85.4c-.4.5-.5 1.2-.1 1.7c2.3 2.7 9.5 11.3 10.7 13c1.4 1.8 0 3.1-.8 3.9c-27.1 27.4-47 20.6-53.4 19.4c-4.1-.8-6-2.8-6.6-6.7c-1.2-8.3-5.1-27.7 21.3-53c1.4-1.3 2.9-1.2 4-.3c.9.7 9.6 8.8 12.1 11.2c.4.4 1 .3 1.4 0c.9-.9 2.5-2.5 3.2-3.1c3.6-3.1 14.7 7.6 11 11.1z"/>
          <path fill="#2F7889" d="m28.3 61.4l-1.8 3.5c-.3.6-.2 1.4.3 1.9l13.8 13.4c.4.4.4 1 0 1.3l-2.4 2.3c-.4.4-1 .4-1.4 0L22.9 70.1c-1-1-1.2-2.6-.3-3.8l4.1-5.8zm30.1 20.5c-1.6 1.6-4.5 1.9-6.6.2c-.3-.3-.8-.2-1.1 0c-4.2 3.9-21.2 19.5-21.7 20c-.6.6-.1 1.3.6.8c9.8-7.3 17.5-8.4 18.8-6.9c2 2.2 7.3 8.3 9.1 10.3c.3.3.3.8 0 1.1c-6.4 6.2-17.5 14.8-33.8 17.6c-1.4.2-1 1.3-.3 1.3h18.4l28.4-26.1l-7 2.7c-.7.3-1.4.1-1.9-.4c-2.6-2.8-10.7-11.7-12.9-14c-.3-.3-.3-.7 0-1c.8-.8 2.1-1.1 8.5-1.4c1.7-.1 1.5-4.2 1.5-4.2" clip-path="url(#SVG9XC5db0L)"/>
          <path fill="#A06841" d="M84.6 34.9S49.8 70.3 48.5 71.7c-2.6 2.8 6 11.6 8.9 8.9c2-1.8 37.4-35.8 37.4-35.8z"/>
          <path id="SVGaKhYkewG" d="M84.6 34.9S49.8 70.3 48.5 71.7c-2.6 2.8 6 11.6 8.9 8.9c2-1.8 37.4-35.8 37.4-35.8z"/>
          <path fill="#7D5133" d="M86.5 56.3c-4.5-4.2-6.3-14.2-1.8-21.1l11.1 11z" clip-path="url(#SVG8G6Dkc4j)"/>
          <path fill="#82AEC0" d="m87.8 30.4l-4.4 4.4c-3 3.1 8.2 14.3 11.3 11.3c1-1 3.1-3 4-3.9c4.7 4.2 10.2 3 13.3 1.5c4.8-2.3 14.8-10.7 13.1-13.2c-.4-.6-1.3-1.6-1.3-1.6s-.8-.8-1.8.1c0 0-8.7 7.9-10.2 9c-2.2 1.6-5.3 1.9-8.1 0c-2.6-1.7-9.3-9.2-11.4-12.2c-1.7-2.5-2.8-5-.9-7.7c1.5-2 9.9-10.2 10.5-11c.9-1 .8-2 .2-2.6c-.4-.5-.9-.9-1.5-1.3c-1.7-1.5-11 6.7-15.1 14.3c-2.8 5 .3 10.2 2.3 12.9"/>
          <path id="SVGJA0CObfb" d="m87.8 30.4l-4.4 4.4c-3 3.1 8.2 14.3 11.3 11.3c1-1 3.1-3 4-3.9c4.7 4.2 10.2 3 13.3 1.5c4.8-2.3 14.8-10.7 13.1-13.2c-.4-.6-1.3-1.6-1.3-1.6s-.8-.8-1.8.1c0 0-8.7 7.9-10.2 9c-2.2 1.6-5.3 1.9-8.1 0c-2.6-1.7-9.3-9.2-11.4-12.2c-1.7-2.5-2.8-5-.9-7.7c1.5-2 9.9-10.2 10.5-11c.9-1 .8-2 .2-2.6c-.4-.5-.9-.9-1.5-1.3c-1.7-1.5-11 6.7-15.1 14.3c-2.8 5 .3 10.2 2.3 12.9"/>
          <path fill="#2F7889" d="m86.9 46.1l6.9-6.5c.5-.5 1.2-.5 1.7 0l3.3 2.7l.7 2.6l-6.7 6.6zm16.5-41.4c-3.5-2.2-13.1 9.7-14.7 12.4c-1.3 2.2-1.4 5.6.3 8.9c2.2 4.2 8.1 11.1 13.2 14.2c3 1.8 6.5 1.7 9 .4c3.2-1.6 13.4-9.9 12.2-12.7s-20-23.2-20-23.2" clip-path="url(#SVGqcOkKgqn)"/>
          <path fill="#A06841" d="M100.9 6.4c7 3.7 17.9 16.7 21.2 22.8c.2.4.2.8 0 1.1c-1.4 2.4-4.1 4.7-7 6.5c-.5.3-1.1.3-1.6-.1c-6.1-4.2-16-14.4-20.4-22.3c-.3-.5-.2-1.1 0-1.5c1.5-2.8 4.2-5.4 6.6-6.5c.4-.2.9-.1 1.2 0"/>
          <path id="SVGJVB7OeoP" d="M100.9 6.4c7 3.7 17.9 16.7 21.2 22.8c.2.4.2.8 0 1.1c-1.4 2.4-4.1 4.7-7 6.5c-.5.3-1.1.3-1.6-.1c-6.1-4.2-16-14.4-20.4-22.3c-.3-.5-.2-1.1 0-1.5c1.5-2.8 4.2-5.4 6.6-6.5c.4-.2.9-.1 1.2 0"/>
          <path fill="#7D5133" d="M104.5 7.2c-2.5.4-9.3 5.1-8.6 12.6c-4.4-2.2-7.2-6.3-7.2-6.3L99.9 2.6z" clip-path="url(#SVGIVfm6ceT)"/>
        </g>
      </g>
    </g>
    <!-- Connector -->
    <line id="ITEM_4_CONN" x1="1000" y1="775.0" x2="1250.0" y2="775.0" stroke="var(--accent-5)" stroke-width="2" stroke-dasharray="4 4" opacity="0.6" stroke-opacity="1.0"/>
    <circle cx="1250.0" cy="775.0" r="5" fill="var(--accent-4)"/>
    <!-- Rigid text block -->
    <!-- _FRAME guarantees text wraps neatly within text_w -->
    <rect id="ITEM_4_TEXT_BG" x="1252.0" y="684.0" width="636.0" height="207.0" rx="22" fill="var(--panel)" fill-opacity="0.94" stroke="var(--primary-text)" stroke-opacity="0.12" stroke-width="1.5"/>
    <rect x="1252.0" y="684.0" width="636.0" height="207.0" rx="16" fill="url(#svg6e8d7e02-universal-surface-sheen)" opacity="0.76"/>
    <rect id="ITEM_4_HEAD_FRAME" x="1270.0" y="700.0" width="600" height="45" fill="none"/>
    <text id="ITEM_4_HEAD" data-bg-id="ITEM_4_TEXT_BG" x="1270.0" y="700.0" font-weight="bold" font-size="28" fill="var(--accent-5)" text-anchor="start" fill-opacity="1.0" stroke="none" style="font-size: 30px; font-family: Inter, Segoe UI, Kalam, Roboto, Helvetica, Arial, sans-serif; font-weight: 700; letter-spacing:-0.4px;" data-final-font-size="30">
      <tspan x="1270.0" dy="30.75px">Lack of Evidence</tspan>
    </text>
    <rect id="ITEM_4_BODY_FRAME" x="1270.0" y="790.0" width="600" height="85" fill="none"/>
    <text id="ITEM_4_BODY" data-bg-id="ITEM_4_TEXT_BG" x="1270.0" y="790.0" font-size="20" fill="var(--primary-text)" text-anchor="start" style="font-size: 26px; font-family: Inter, Segoe UI, Kalam, Roboto, Helvetica, Arial, sans-serif; font-weight: 400;" data-final-font-size="26">
      <tspan x="1270.0" dy="25.84px">Absence of physical debris fueled enduring</tspan>
      <tspan x="1270.0" dy="29.90px">mystery theories</tspan>
    </text>
    <circle cx="960" cy="950.0" r="64" fill="url(#svg6e8d7e02-universal-icon-aura)" opacity="0.82"/>
    <g transform="translate(960, 950.0)">
      <circle id="ITEM_5_STROKE" cx="0" cy="0" r="37" fill="transparent" stroke="var(--accent-6)" stroke-width="3" stroke-opacity="1.0"/>
      <circle id="ITEM_5_BORDER" cx="0" cy="0" r="45" fill="transparent" stroke="var(--accent-6)" stroke-width="3" stroke-dasharray="6 4" stroke-opacity="1.0"/>
      <circle id="ITEM_5_PAD" cx="0.00" cy="0.00" r="40.00" fill="var(--icon-pad-bg)" stroke="var(--primary-text)" stroke-width="2" opacity="0.9"/>
      <circle id="ITEM_5_PAD_INNER" cx="0.00" cy="0.00" r="31.20" fill="var(--accent-6)" fill-opacity="0.22"/>
      <g id="ITEM_5_ICON" transform="translate(-25, -25)" data-icon-size="50" stroke-dasharray="6 4">
        <g transform="translate(-8.280000000000003,-8.8) scale(2.08)">
          <path d="M30.893 15C30.044 7.683 23.834 2 16.289 2H15.057C7.293 2 1 8.293 1 16.057C1 18.787 3.213 21 5.943 21H8.025C8.278 23.803 10.631 26 13.5 26H24C27.17 26 29.845 23.891 30.706 21C30.895 20.366 31 19.695 31 19V16.711C31 16.131 30.958 15.562 30.893 15Z" fill="#FF6DC6"/>
          <path d="M25 25.982V29.586C25 30.254 24.192 30.589 23.72 30.116L19.604 26L25 25.982Z" fill="#F70A8D"/>
          <path d="M10.178 7.536C10.285 7.503 10.367 7.407 10.377 7.287C10.45 6.417 10.508 5.544 10.5 4.659C10.221 5.413 10 6.177 9.79203 6.943C7.93903 7.238 6.17903 8.228 4.94903 9.671C3.66703 11.148 2.93203 13.106 3.05503 15C3.58403 13.192 4.45103 11.598 5.66503 10.315C6.87703 9.036 8.40603 8.087 10.122 7.553L10.178 7.536ZM19.682 5.159C19.412 4.594 18.935 4.134 18.372 3.822C17.81 3.502 17.152 3.349 16.5 3.341C15.848 3.351 15.191 3.504 14.629 3.824C14.067 4.135 13.589 4.595 13.318 5.159C14.427 4.616 15.441 4.334 16.5 4.341C17.559 4.336 18.57 4.617 19.682 5.159ZM11.055 15.098C10.75 15.192 10.459 15.325 10.176 15.477C10.166 15.385 10.154 15.293 10.133 15.203C10.035 14.761 9.79203 14.355 9.47503 14.026C8.83403 13.382 7.79803 13.091 7.00003 13.5C7.77503 13.902 8.30103 14.259 8.76803 14.732C9.08703 15.048 9.35203 15.396 9.61503 15.823C9.36503 16 9.12303 16.19 8.90403 16.404C8.30903 17.01 7.84303 17.749 7.59603 18.554C7.34303 19.354 7.29203 20.213 7.50003 21C7.90203 19.438 8.58103 18.134 9.61003 17.11C10.631 16.079 11.938 15.4 13.5 15C12.713 14.794 11.854 14.845 11.055 15.098ZM23.042 19.538C22.622 19.615 22.063 19.536 21.511 19.528L19.872 19.5C19.141 19.505 18.409 19.525 17.678 19.555C18.185 19.002 18.393 18.142 18 17.5C17.597 18.145 17.295 18.539 16.914 18.914C16.651 19.179 16.374 19.408 16.013 19.66C15.115 19.735 14.217 19.837 13.319 20C15.504 20.396 17.688 20.485 19.873 20.5L20.229 20.494C20.488 20.687 20.707 20.875 20.915 21.086C21.294 21.462 21.596 21.856 22.001 22.5C22.21 22.171 22.249 21.77 22.171 21.394C22.106 21.047 21.921 20.733 21.686 20.465L22.332 20.437C22.594 20.435 22.956 20.396 23.243 20.291C24.474 19.921 25.238 18.605 25.002 17.501C24.792 18.598 23.957 19.385 23.042 19.538ZM29.365 16.863C29.094 15.997 28.591 15.204 27.949 14.551C27.296 13.91 26.502 13.407 25.636 13.136C25.105 12.964 24.55 12.886 24.001 12.891C24.616 12.249 25.101 11.478 25.364 10.636C25.643 9.776 25.706 8.853 25.5 8C25.1 9.693 24.367 11.129 23.243 12.243C22.127 13.366 20.693 14.097 19 14.5C19.853 14.708 20.777 14.645 21.637 14.365C22.384 14.131 23.071 13.717 23.667 13.198C25.068 13.623 26.282 14.286 27.244 15.256C28.367 16.372 29.098 17.806 29.501 19.499C29.708 18.647 29.645 17.723 29.365 16.863Z" fill="#F70A8D"/>
        </g>
      </g>
    </g>
    <!-- Connector -->
    <line id="ITEM_5_CONN" x1="920" y1="950.0" x2="670.0" y2="950.0" stroke="var(--accent-6)" stroke-width="2" stroke-dasharray="4 4" opacity="0.6" stroke-opacity="1.0"/>
    <circle cx="670.0" cy="950.0" r="5" fill="var(--accent-5)"/>
    <!-- Rigid text block -->
    <!-- _FRAME guarantees text wraps neatly within text_w -->
    <rect id="ITEM_5_TEXT_BG" x="32.0" y="859.0" width="636.0" height="207.0" rx="22" fill="var(--panel)" fill-opacity="0.94" stroke="var(--primary-text)" stroke-opacity="0.12" stroke-width="1.5"/>
    <rect x="32.0" y="859.0" width="636.0" height="207.0" rx="16" fill="url(#svg6e8d7e02-universal-surface-sheen)" opacity="0.76"/>
    <rect id="ITEM_5_HEAD_FRAME" x="50.0" y="875.0" width="600" height="45" fill="none"/>
    <text id="ITEM_5_HEAD" data-bg-id="ITEM_5_TEXT_BG" x="650.0" y="875.0" font-weight="bold" font-size="28" fill="var(--accent-6)" text-anchor="end" fill-opacity="1.0" stroke="none" style="font-size: 30px; font-family: Inter, Segoe UI, Kalam, Roboto, Helvetica, Arial, sans-serif; font-weight: 700; letter-spacing:-0.4px;" data-final-font-size="30">
      <tspan x="650.0" dy="30.75px">Lasting Perception</tspan>
    </text>
    <rect id="ITEM_5_BODY_FRAME" x="50.0" y="965.0" width="600" height="85" fill="none"/>
    <text id="ITEM_5_BODY" data-bg-id="ITEM_5_TEXT_BG" x="650.0" y="965.0" font-size="20" fill="var(--primary-text)" text-anchor="end" style="font-size: 26px; font-family: Inter, Segoe UI, Kalam, Roboto, Helvetica, Arial, sans-serif; font-weight: 400;" data-final-font-size="26">
      <tspan x="650.0" dy="25.84px">Memories of control measures became part</tspan>
      <tspan x="650.0" dy="29.90px">of the evidence</tspan>
    </text>
  </g>
</svg>
