<?xml version='1.0' encoding='utf-8'?>
<svg xmlns="http://www.w3.org/2000/svg" width="1920" height="1080" viewBox="0 0 1920 1080" data-theme="dark">
  <style>
        @font-face {
            font-family: 'Inter';
            src: url('assets/fonts/Inter-Regular.ttf') format('truetype');
            font-weight: 400;
            font-style: normal;
            font-display: swap;
        }
        @font-face {
            font-family: 'Inter';
            src: url('assets/fonts/Inter-Bold.ttf') format('truetype');
            font-weight: 600;
            font-style: normal;
            font-display: swap;
        }
        @font-face {
            font-family: 'Inter';
            src: url('assets/fonts/Inter-Bold.ttf') format('truetype');
            font-weight: 800;
            font-style: normal;
            font-display: swap;
        }
        
:root {
    --background: #0f172a;
    --panel: #1e293b;
    --primary-text: #f1f5f9;
    --muted-text: #94a3b8;
    --inverse-text: #0f172a;
    --border: #334155;
    --shadow-color: #000000;
    --icon-pad-bg: #1e293b;
    --art-glow: #7dd3fc;
    --art-glow-opacity: 0.18;
    --art-sheen: #ffffff;
    --art-sheen-opacity: 0.18;
    --art-shadow: #000000;
    --art-shadow-opacity: 0.28;
    --art-muted-line: #64748b;
    --art-panel-tint: #1e293b;
    --font-family: 'Inter', 'Segoe UI', 'Kalam', Roboto, Helvetica, Arial, sans-serif;
    --radius-xl: 16px;
    --font-family-headline: 'Inter', 'Segoe UI', 'Kalam', Roboto, Helvetica, Arial, sans-serif;
    --font-family-body: 'Inter', 'Segoe UI', 'Kalam', Roboto, Helvetica, Arial, sans-serif;
    --font-heading: 'Inter', 'Segoe UI', 'Kalam', Roboto, Helvetica, Arial, sans-serif;
    --font-body: 'Inter', 'Segoe UI', 'Kalam', Roboto, Helvetica, Arial, sans-serif;
    --font-size-h1: 56px;
    --font-size-h2: 40px;
    --font-size-h3: 28px;
    --font-size-body: 24px;
    --font-size-caption: 18px;
    --secondary-text: var(--muted-text);
    --panel-border: var(--border);
    --font-weight-normal: 400;
    --font-weight-medium: 500;
    --font-weight-semibold: 600;
    --font-weight-bold: 700;
    --spacing-gutter-pct: 0.07;
    --spacing-top-pct: 0.15;
    --spacing-bottom-pct: 0.07;
    --spacing-title-y-pct: 0.055;
    --accent-1: #22d3ee;
    --accent-2: #f472b6;
    --accent-3: #facc15;
    --accent-4: #a3e635;
    --accent-5: #fb923c;
    --accent-6: #c084fc;
}
:root[data-theme="dark"] {
    --background: #0f172a;
    --panel: #1e293b;
    --primary-text: #f1f5f9;
    --muted-text: #94a3b8;
    --inverse-text: #0f172a;
    --border: #334155;
    --shadow-color: #000000;
    --icon-pad-bg: #1e293b;
    --art-glow: #7dd3fc;
    --art-glow-opacity: 0.18;
    --art-sheen: #ffffff;
    --art-sheen-opacity: 0.18;
    --art-shadow: #000000;
    --art-shadow-opacity: 0.28;
    --art-muted-line: #64748b;
    --art-panel-tint: #1e293b;
    --accent-1: #22d3ee;
    --accent-2: #f472b6;
    --accent-3: #facc15;
    --accent-4: #a3e635;
    --accent-5: #fb923c;
    --accent-6: #c084fc;
}
:root[data-theme="light"] {
    --background: #f8fafc;
    --panel: #ffffff;
    --primary-text: #0f172a;
    --muted-text: #64748b;
    --inverse-text: #ffffff;
    --border: #e2e8f0;
    --shadow-color: #000000;
    --icon-pad-bg: #1e293b;
    --art-glow: #0891b2;
    --art-glow-opacity: 0.10;
    --art-sheen: #ffffff;
    --art-sheen-opacity: 0.34;
    --art-shadow: #0f172a;
    --art-shadow-opacity: 0.14;
    --art-muted-line: #94a3b8;
    --art-panel-tint: #f1f5f9;
    --accent-1: #0891b2;
    --accent-2: #db2777;
    --accent-3: #ca8a04;
    --accent-4: #65a30d;
    --accent-5: #ea580c;
    --accent-6: #9333ea;
}</style>
  <rect x="0" y="0" width="1.92E+3" height="1.08E+3" fill="#252a34" stroke="none" id="programmatic_background"/>
  <line id="HEADER_DECOR" x1="960.0" x2="1080.0" y1="135.0" y2="135.0" stroke="var(--accent-1)" stroke-width="6" stroke-linecap="round"/>
  <defs>
    <pattern id="svg77539398-napkin-hatch" patternUnits="userSpaceOnUse" width="12" height="12">
      <path d="M -3 12 L 12 -3 M 0 15 L 15 0" fill="none" stroke="var(--primary-text)" stroke-width="1" stroke-opacity="0.04"/>
    </pattern>
    <filter id="svg77539398-soft-shadow" x="-30%" y="-30%" width="160%" height="160%">
      <feDropShadow dx="0" dy="4" stdDeviation="8" flood-color="#000000" flood-opacity="0.18"/>
    </filter>
    <radialGradient id="svg77539398-universal-edge-vignette" cx="50%" cy="50%" r="72%">
      <stop offset="0%" stop-color="var(--background)" stop-opacity="0"/>
      <stop offset="72%" stop-color="var(--background)" stop-opacity="0.12"/>
      <stop offset="100%" stop-color="var(--primary-text)" stop-opacity="0.08"/>
    </radialGradient>
    <linearGradient id="svg77539398-universal-surface-sheen" x1="0%" y1="0%" x2="100%" y2="100%">
      <stop offset="0%" stop-color="var(--art-sheen)" stop-opacity="var(--art-sheen-opacity)"/>
      <stop offset="46%" stop-color="var(--art-sheen)" stop-opacity="0.035"/>
      <stop offset="100%" stop-color="var(--art-panel-tint)" stop-opacity="0.14"/>
    </linearGradient>
    <radialGradient id="svg77539398-universal-icon-aura" cx="50%" cy="42%" r="64%">
      <stop offset="0%" stop-color="var(--art-glow)" stop-opacity="var(--art-glow-opacity)"/>
      <stop offset="100%" stop-color="var(--background)" stop-opacity="0"/>
    </radialGradient>
    <linearGradient id="svg77539398-tug-rope-sheen" x1="0%" y1="0%" x2="100%" y2="0%">
      <stop offset="0%" stop-color="var(--background)" stop-opacity="0"/>
      <stop offset="50%" stop-color="var(--inverse-text)" stop-opacity="0.16"/>
      <stop offset="100%" stop-color="var(--background)" stop-opacity="0"/>
    </linearGradient>
    <filter id="svg77539398-text-glow" x="-20%" y="-20%" width="140%" height="140%">
      <feDropShadow dx="0" dy="0" stdDeviation="2" flood-color="#000000" flood-opacity="0.4"/>
    </filter>
    <filter id="svg77539398-shadow" x="-30%" y="-30%" width="160%" height="160%">
      <feDropShadow dx="0" dy="2" stdDeviation="3" flood-color="#000000" flood-opacity="0.08"/>
      <feDropShadow dx="0" dy="6" stdDeviation="10" flood-color="#000000" flood-opacity="0.12"/>
    </filter>
    <marker id="svg77539398-arrowhead" markerWidth="10" markerHeight="7" refX="9" refY="3.5" orient="auto" markerUnits="strokeWidth">
      <polygon points="0 0, 10 3.5, 0 7" fill="var(--muted-text)" opacity="0.6"/>
    </marker>
  </defs>
  <rect id="CANVAS_BG" width="100%" height="100%" fill="var(--background)"/>
  <rect width="100%" height="100%" fill="url(#svg77539398-napkin-hatch)"/>
  <rect id="UNIVERSAL_EDGE_VIGNETTE" width="100%" height="100%" fill="url(#svg77539398-universal-edge-vignette)" opacity="0.62"/>
  <text id="TITLE" x="960.0" y="59" text-anchor="middle" font-size="56" font-weight="800" fill="#f1f5f9" style="font-size: 60px; font-family: Inter, Segoe UI, Kalam, Roboto, Helvetica, Arial, sans-serif; font-weight: 700; letter-spacing:-1.2px;" data-final-font-size="60">
    <tspan x="960.0" dy="68.00px">Official Record vs. Local Claims</tspan>
  </text>
  <rect id="TITLE_FRAME" x="134" y="59" width="1652" height="103" fill="none"/>
  <ellipse cx="960" cy="332" rx="220" ry="58" fill="var(--panel)" fill-opacity="0.48" opacity="0.34"/>
  <path d="M 162 322 Q 614 304 934 332" fill="none" stroke="var(--primary-text)" stroke-width="16" stroke-linecap="round" opacity="0.10"/>
  <path d="M 1758 322 Q 1306 304 986 332" fill="none" stroke="var(--primary-text)" stroke-width="16" stroke-linecap="round" opacity="0.10"/>
  <path d="M 200 322 Q 616 308 936 332" fill="none" stroke="var(--muted-text)" stroke-width="8" stroke-linecap="round" opacity="0.88"/>
  <path d="M 1720 322 Q 1304 308 984 332" fill="none" stroke="var(--muted-text)" stroke-width="8" stroke-linecap="round" opacity="0.88"/>
  <path d="M 862 316 L 934 329" fill="none" stroke="var(--accent-2)" stroke-width="3" stroke-linecap="round" opacity="0.22"/>
  <path d="M 1058 316 L 986 329" fill="none" stroke="var(--accent-3)" stroke-width="3" stroke-linecap="round" opacity="0.22"/>
  <circle cx="960" cy="332" r="24" fill="var(--panel)" fill-opacity="0.94" stroke="var(--primary-text)" stroke-width="3"/>
  <path d="M 960 308 L 982 332 L 960 356 L 938 332 Z" fill="var(--primary-text)"/>
  <path d="M 350 334 L 382 384" fill="none" stroke="var(--muted-text)" stroke-width="3" stroke-linecap="round" opacity="0.7"/>
  <circle cx="382" cy="384" r="6" fill="var(--accent-1)"/>
  <g transform="translate(292, 414)" filter="url(#svg77539398-soft-shadow)">
    <path d="M 46 0 L 74 -28 L 118 -28 Q 128 -28 132 -18 L 140 0 Z" fill="var(--panel)" fill-opacity="0.95" stroke="var(--accent-1)" stroke-width="3"/>
    <rect id="ITEM_1_BG" x="-185" y="0" width="370" height="344" rx="22" fill="var(--panel)" fill-opacity="0.96" stroke="var(--accent-1)" stroke-width="3"/>
    <rect x="-156" y="14" width="286" height="8" rx="4" fill="var(--accent-1)" fill-opacity="0.42"/>
    <path d="M 60 28 L 154 28 L 130 318 L 72 318 Z" fill="var(--accent-1)" fill-opacity="0.07"/>
    <circle id="ITEM_1_PAD" cx="0" cy="78" r="42" fill="var(--icon-pad-bg)" stroke="var(--primary-text)" opacity="0.92" fill-opacity="0.9" stroke-width="2"/>
    <circle id="ITEM_1_PAD_INNER" cx="0" cy="78" r="32.76" fill="var(--accent-3)" fill-opacity="0.22"/>
    <circle cx="0" cy="78" r="32" fill="none" stroke="var(--accent-1)" stroke-width="2.25" stroke-dasharray="5 4" opacity="0.82"/>
    <g id="ITEM_1_ICON" transform="translate(-31, 46)" data-icon-size="62" stroke-dasharray="5 4">
      <g transform="translate(-6.108672566371679,-6.398584070796458) scale(2.31929203539823)">
        <path d="M23.5103 2.01H8.60027V2H4.45026V5H6.95026V27.07C6.95026 28.69 8.27026 30.01 9.89026 30.01H25.5603C26.3303 30.01 26.9503 29.39 26.9503 28.62V5.45C26.9503 3.55 25.4103 2.01 23.5103 2.01Z" fill="#FFDEA7"/>
        <path d="M10.8603 29.99C10.8603 29.99 13.1003 29.66 13.5903 27.49C13.6603 27.19 14.0003 26.97 14.4003 26.97H29.1303C29.6503 26.97 30.0403 27.33 29.9503 27.71C29.7203 28.6 29.3503 30 25.5803 30C20.0103 30 10.8603 29.99 10.8603 29.99Z" fill="#E19747"/>
        <path d="M6.95026 5C6.95026 3.34 5.83027 2 4.45026 2C3.26026 2 2.27028 3 2.01028 4.33C1.95028 4.67 2.16026 5 2.45026 5H6.95026Z" fill="#D3883E"/>
        <path d="M10.4203 11.87C10.1441 11.87 9.92029 12.0939 9.92029 12.37C9.92029 12.6461 10.1441 12.87 10.4203 12.87H23.5003C23.7764 12.87 24.0003 12.6461 24.0003 12.37C24.0003 12.0939 23.7764 11.87 23.5003 11.87H10.4203ZM9.98029 15.33C9.98029 15.0539 10.2041 14.83 10.4803 14.83H23.5003C23.7764 14.83 24.0003 15.0539 24.0003 15.33C24.0003 15.6062 23.7764 15.83 23.5003 15.83H10.4803C10.2041 15.83 9.98029 15.6062 9.98029 15.33ZM10.4803 17.85C10.2041 17.85 9.98029 18.0738 9.98029 18.35C9.98029 18.6261 10.2041 18.85 10.4803 18.85H23.5003C23.7764 18.85 24.0003 18.6261 24.0003 18.35C24.0003 18.0738 23.7764 17.85 23.5003 17.85H10.4803ZM10.5103 20.83C10.2341 20.83 10.0103 21.0539 10.0103 21.33C10.0103 21.6062 10.2341 21.83 10.5103 21.83H18.4703C18.7464 21.83 18.9703 21.6062 18.9703 21.33C18.9703 21.0539 18.7464 20.83 18.4703 20.83H10.5103Z" fill="#D3883E"/>
      </g>
    </g>
    <text id="ITEM_1_HEAD" x="0.0" y="138.0" text-anchor="middle" font-size="38" font-weight="800" fill="var(--accent-3)" data-bg-id="ITEM_1_BG" data-max-lines="3" data-min-font-size="13" fill-opacity="1.0" stroke="none" style="font-size: 30px; font-family: Inter, Segoe UI, Kalam, Roboto, Helvetica, Arial, sans-serif; font-weight: 700; letter-spacing:-0.4px;" data-final-font-size="30">
      <tspan x="0.0" dy="41.25px">Air Force Findings</tspan>
    </text>
    <rect id="ITEM_1_HEAD_FRAME" x="-152" y="138" width="304" height="66" fill="none"/>
    <text id="ITEM_1_BODY" x="0.0" y="204.0" text-anchor="middle" font-size="24" fill="var(--primary-text)" data-bg-id="ITEM_1_BG" style="font-size: 26px; font-family: Inter, Segoe UI, Kalam, Roboto, Helvetica, Arial, sans-serif; font-weight: 400;" data-final-font-size="26">
      <tspan x="0.0" dy="30.86px">Documented fireball</tspan>
      <tspan x="0.0" dy="29.90px">consistent with natural</tspan>
      <tspan x="0.0" dy="29.90px">meteor behavior</tspan>
    </text>
    <rect id="ITEM_1_BODY_FRAME" x="-162" y="204" width="324" height="140" fill="none"/>
  </g>
  <path d="M 852 336 L 812 356" fill="none" stroke="var(--muted-text)" stroke-width="3" stroke-linecap="round" opacity="0.7"/>
  <circle cx="812" cy="356" r="6" fill="var(--accent-2)"/>
  <g transform="translate(722, 386)" filter="url(#svg77539398-soft-shadow)">
    <path d="M 46 0 L 74 -28 L 118 -28 Q 128 -28 132 -18 L 140 0 Z" fill="var(--panel)" fill-opacity="0.95" stroke="var(--accent-2)" stroke-width="3"/>
    <rect id="ITEM_2_BG" x="-185" y="0" width="370" height="344" rx="22" fill="var(--panel)" fill-opacity="0.96" stroke="var(--accent-2)" stroke-width="3"/>
    <rect x="-156" y="14" width="286" height="8" rx="4" fill="var(--accent-2)" fill-opacity="0.42"/>
    <path d="M 60 28 L 154 28 L 130 318 L 72 318 Z" fill="var(--accent-2)" fill-opacity="0.07"/>
    <circle id="ITEM_2_PAD" cx="0" cy="78" r="42" fill="var(--icon-pad-bg)" stroke="var(--primary-text)" opacity="0.92" fill-opacity="0.9" stroke-width="2"/>
    <circle id="ITEM_2_PAD_INNER" cx="0" cy="78" r="32.76" fill="var(--accent-4)" fill-opacity="0.22"/>
    <circle cx="0" cy="78" r="32" fill="none" stroke="var(--accent-2)" stroke-width="2.25" stroke-dasharray="5 4" opacity="0.82"/>
    <g id="ITEM_2_ICON" transform="translate(-31, 46)" data-icon-size="62" stroke-dasharray="5 4">
      <g transform="translate(-4.5362711864406755,-4.536271186440677) scale(2.9613559322033898)" vector-effect="non-scaling-stroke" stroke-width="2.46" stroke-linecap="round" stroke-linejoin="round" stroke-opacity="1.0">
        <path d="M14 18V6a2 2 0 0 0-2-2H4a2 2 0 0 0-2 2v11a1 1 0 0 0 1 1h2" vector-effect="non-scaling-stroke" fill="none" stroke="#f1f5f9"/>
        <path d="M15 18H9" vector-effect="non-scaling-stroke" fill="none" stroke="#f1f5f9"/>
        <path d="M19 18h2a1 1 0 0 0 1-1v-3.65a1 1 0 0 0-.22-.624l-3.48-4.35A1 1 0 0 0 17.52 8H14" vector-effect="non-scaling-stroke" fill="none" stroke="#f1f5f9"/>
        <circle cx="17" cy="18" r="2" vector-effect="non-scaling-stroke" fill="none" stroke="#f1f5f9"/>
        <circle cx="7" cy="18" r="2" vector-effect="non-scaling-stroke" fill="none" stroke="#f1f5f9"/>
      </g>
    </g>
    <text id="ITEM_2_HEAD" x="0.0" y="138.0" text-anchor="middle" font-size="38" font-weight="800" fill="var(--accent-4)" data-bg-id="ITEM_2_BG" data-max-lines="3" data-min-font-size="13" fill-opacity="1.0" stroke="none" style="font-size: 30px; font-family: Inter, Segoe UI, Kalam, Roboto, Helvetica, Arial, sans-serif; font-weight: 700; letter-spacing:-0.4px;" data-final-font-size="30">
      <tspan x="0.0" dy="25.50px">Ground Search</tspan>
      <tspan x="0.0" dy="31.50px">Results</tspan>
    </text>
    <rect id="ITEM_2_HEAD_FRAME" x="-152" y="138" width="304" height="66" fill="none"/>
    <text id="ITEM_2_BODY" x="0.0" y="204.0" text-anchor="middle" font-size="24" fill="var(--primary-text)" data-bg-id="ITEM_2_BG" style="font-size: 26px; font-family: Inter, Segoe UI, Kalam, Roboto, Helvetica, Arial, sans-serif; font-weight: 400;" data-final-font-size="26">
      <tspan x="0.0" dy="30.86px">Technical personnel</tspan>
      <tspan x="0.0" dy="29.90px">reported nothing of</tspan>
      <tspan x="0.0" dy="29.90px">interest found</tspan>
    </text>
    <rect id="ITEM_2_BODY_FRAME" x="-162" y="204" width="324" height="140" fill="none"/>
  </g>
  <path d="M 1068 336 L 1108 356" fill="none" stroke="var(--muted-text)" stroke-width="3" stroke-linecap="round" opacity="0.7"/>
  <circle cx="1108" cy="356" r="6" fill="var(--accent-3)"/>
  <g transform="translate(1198, 386)" filter="url(#svg77539398-soft-shadow)">
    <path d="M -46 0 L -74 -28 L -118 -28 Q -128 -28 -132 -18 L -140 0 Z" fill="var(--panel)" fill-opacity="0.95" stroke="var(--accent-3)" stroke-width="3"/>
    <rect id="ITEM_3_BG" x="-185" y="0" width="370" height="344" rx="22" fill="var(--panel)" fill-opacity="0.96" stroke="var(--accent-3)" stroke-width="3"/>
    <rect x="-130" y="14" width="286" height="8" rx="4" fill="var(--accent-3)" fill-opacity="0.42"/>
    <path d="M -60 28 L -154 28 L -130 318 L -72 318 Z" fill="var(--accent-3)" fill-opacity="0.07"/>
    <circle id="ITEM_3_PAD" cx="0" cy="78" r="42" fill="var(--icon-pad-bg)" stroke="var(--primary-text)" opacity="0.92" fill-opacity="0.9" stroke-width="2"/>
    <circle id="ITEM_3_PAD_INNER" cx="0" cy="78" r="32.76" fill="var(--accent-5)" fill-opacity="0.22"/>
    <circle cx="0" cy="78" r="32" fill="none" stroke="var(--accent-3)" stroke-width="2.25" stroke-dasharray="5 4" opacity="0.82"/>
    <g id="ITEM_3_ICON" transform="translate(-31, 46)" data-icon-size="62" stroke-dasharray="5 4">
      <g transform="translate(-6.439999999999998,-5.269999999999996) scale(2.34)">
        <path fill-rule="evenodd" clip-rule="evenodd" d="M10 8.83354V3.52275C10 3.23233 9.75879 3 9.46734 3H6.54271C6.24121 3 6 3.23233 6 3.52275V12.1687L5 13.0025V29.0025H27V14.0025L16.07 3.77246L10 8.83354Z" fill="#F3C07B"/>
        <path d="M15.92 27.0025H8.08C8.04 27.0025 8 26.9625 8 26.9225V16.3925C8 15.6425 8.61 15.0325 9.36 15.0325H14.65C15.4 15.0325 16.01 15.6425 16.01 16.3925V26.9225C16 26.9625 15.96 27.0025 15.92 27.0025Z" fill="#8C5543"/>
        <path d="M14.5 21.0024C14.7761 21.0024 15 20.7786 15 20.5024C15 20.2263 14.7761 20.0024 14.5 20.0024C14.2239 20.0024 14 20.2263 14 20.5024C14 20.7786 14.2239 21.0024 14.5 21.0024Z" fill="#402A32"/>
        <path d="M15.96 28.0024H8C7.45 28.0024 7 27.5524 7 27.0024C7 26.4524 7.45 26.0024 8 26.0024H15.96C16.51 26.0024 16.96 26.4524 16.96 27.0024C16.96 27.5524 16.51 28.0024 15.96 28.0024Z" fill="#D3D3D3"/>
        <path d="M30 29.0024H2V28.9124C2 27.8524 2.85 27.0024 3.91 27.0024H28.09C29.14 27.0024 30 27.8524 30 28.9124V29.0024Z" fill="#00F397"/>
        <path d="M16.88 2.3525L29.64 14.9225C30.12 15.3925 30.12 16.1525 29.64 16.6125C29.17 17.0825 28.4 17.0825 27.92 16.6125L16.02 4.8925L4.08 16.6525C3.61 17.1225 2.84 17.1225 2.36 16.6525C1.88 16.1825 1.88 15.4225 2.36 14.9525L15.16 2.3525C15.63 1.8825 16.4 1.8825 16.88 2.3525Z" fill="#F8312F"/>
        <path d="M23.14 21.0024H18.86C18.38 21.0024 18 20.6224 18 20.1424V15.8624C18 15.3924 18.38 15.0024 18.86 15.0024H23.14C23.61 15.0024 24 15.3824 24 15.8624V20.1424C24 20.6224 23.62 21.0024 23.14 21.0024Z" fill="#83CBFF"/>
      </g>
    </g>
    <text id="ITEM_3_HEAD" x="0.0" y="138.0" text-anchor="middle" font-size="38" font-weight="800" fill="var(--accent-5)" data-bg-id="ITEM_3_BG" data-max-lines="3" data-min-font-size="13" fill-opacity="1.0" stroke="none" style="font-size: 30px; font-family: Inter, Segoe UI, Kalam, Roboto, Helvetica, Arial, sans-serif; font-weight: 700; letter-spacing:-0.4px;" data-final-font-size="30">
      <tspan x="0.0" dy="41.25px">Local Narratives</tspan>
    </text>
    <rect id="ITEM_3_HEAD_FRAME" x="-152" y="138" width="304" height="66" fill="none"/>
    <text id="ITEM_3_BODY" x="0.0" y="204.0" text-anchor="middle" font-size="24" fill="var(--primary-text)" data-bg-id="ITEM_3_BG" style="font-size: 26px; font-family: Inter, Segoe UI, Kalam, Roboto, Helvetica, Arial, sans-serif; font-weight: 400;" data-final-font-size="26">
      <tspan x="0.0" dy="30.86px">Residents claimed a</tspan>
      <tspan x="0.0" dy="29.90px">recovered object</tspan>
      <tspan x="0.0" dy="29.90px">was present</tspan>
    </text>
    <rect id="ITEM_3_BODY_FRAME" x="-162" y="204" width="324" height="140" fill="none"/>
  </g>
  <path d="M 1570 334 L 1538 384" fill="none" stroke="var(--muted-text)" stroke-width="3" stroke-linecap="round" opacity="0.7"/>
  <circle cx="1538" cy="384" r="6" fill="var(--accent-4)"/>
  <g transform="translate(1628, 414)" filter="url(#svg77539398-soft-shadow)">
    <path d="M -46 0 L -74 -28 L -118 -28 Q -128 -28 -132 -18 L -140 0 Z" fill="var(--panel)" fill-opacity="0.95" stroke="var(--accent-4)" stroke-width="3"/>
    <rect id="ITEM_4_BG" x="-185" y="0" width="370" height="344" rx="22" fill="var(--panel)" fill-opacity="0.96" stroke="var(--accent-4)" stroke-width="3"/>
    <rect x="-130" y="14" width="286" height="8" rx="4" fill="var(--accent-4)" fill-opacity="0.42"/>
    <path d="M -60 28 L -154 28 L -130 318 L -72 318 Z" fill="var(--accent-4)" fill-opacity="0.07"/>
    <circle id="ITEM_4_PAD" cx="0" cy="78" r="42" fill="var(--icon-pad-bg)" stroke="var(--primary-text)" opacity="0.92" fill-opacity="0.9" stroke-width="2"/>
    <circle id="ITEM_4_PAD_INNER" cx="0" cy="78" r="32.76" fill="var(--accent-6)" fill-opacity="0.22"/>
    <circle cx="0" cy="78" r="32" fill="none" stroke="var(--accent-4)" stroke-width="2.25" stroke-dasharray="5 4" opacity="0.82"/>
    <g id="ITEM_4_ICON" transform="translate(-31, 46)" data-icon-size="62" stroke-dasharray="5 4">
      <g transform="translate(-6.398584070796458,-7.848141592920353) scale(2.31929203539823)">
        <path d="M5 27.99C5 28.75 5.61 29.36 6.37 29.36C7.13 29.36 7.74 28.75 7.74 27.99V26.62H5V27.99ZM24.15 27.99C24.15 28.75 24.76 29.36 25.52 29.36C26.27 29.36 26.89 28.75 26.89 27.99V26.62H24.15V27.99Z" fill="#212121"/>
        <path d="M27 5C27 5.55228 26.5523 6 26 6C25.7251 6 25.4761 5.88908 25.2954 5.70956L7.9667 9.12058L7.77356 8.1394L25.0336 4.74189C25.1474 4.3147 25.537 4 26 4C26.5523 4 27 4.44772 27 5Z" fill="#9B9B9B"/>
        <path d="M6.84005 11.85C7.96671 11.85 8.88005 10.9367 8.88005 9.81002C8.88005 8.68336 7.96671 7.77002 6.84005 7.77002C5.71338 7.77002 4.80005 8.68336 4.80005 9.81002C4.80005 10.9367 5.71338 11.85 6.84005 11.85Z" fill="#D3D3D3"/>
        <path d="M27.38 9.81006H4.63C3.18 9.81006 2 10.9901 2 12.4401V24.6901C2 26.1401 3.18 27.3201 4.63 27.3201H27.38C28.83 27.3201 30.01 26.1401 30.01 24.6901V12.4301C30 10.9801 28.83 9.81006 27.38 9.81006Z" fill="#9B9B9B"/>
        <path d="M26.32 12.76H18.45C17.79 12.76 17.25 13.3 17.25 13.96V18.79C17.25 19.45 17.79 19.99 18.45 19.99H26.32C26.98 19.99 27.52 19.45 27.52 18.79V13.96C27.52 13.3 26.98 12.76 26.32 12.76Z" fill="#83CBFF"/>
        <path d="M19.88 15.83C19.44 15.83 19.09 16.19 19.09 16.62V19.98H20.68V16.62C20.67 16.19 20.32 15.83 19.88 15.83Z" fill="#F8312F"/>
        <path d="M14.83 14.12C15.2 14.12 15.51 13.82 15.51 13.44C15.51 13.07 15.21 12.76 14.83 12.76H5.18C4.81 12.76 4.5 13.06 4.5 13.44C4.5 13.81 4.8 14.12 5.18 14.12H14.83ZM15.51 15.96C15.51 16.34 15.2 16.64 14.83 16.64H5.18C4.8 16.64 4.5 16.33 4.5 15.96C4.5 15.58 4.81 15.28 5.18 15.28H14.83C15.21 15.27 15.51 15.58 15.51 15.96ZM14.83 19.15C15.2 19.15 15.51 18.85 15.51 18.47C15.51 18.1 15.21 17.79 14.83 17.79H5.18C4.81 17.79 4.5 18.09 4.5 18.47C4.5 18.84 4.8 19.15 5.18 19.15H14.83ZM15.51 20.9901C15.51 21.3701 15.2 21.6701 14.83 21.6701H5.18C4.8 21.6701 4.5 21.3601 4.5 20.9901C4.5 20.6101 4.81 20.3101 5.18 20.3101H14.83C15.21 20.3 15.51 20.6101 15.51 20.9901ZM15.51 23.5001C15.51 23.8801 15.2 24.1801 14.83 24.1801H5.18C4.8 24.1801 4.5 23.8701 4.5 23.5001C4.5 23.1201 4.81 22.8201 5.18 22.8201H14.83C15.21 22.8201 15.51 23.1301 15.51 23.5001Z" fill="#212121"/>
        <path d="M21.04 22.9199C21.04 23.6103 20.4804 24.1699 19.79 24.1699C19.0997 24.1699 18.54 23.6103 18.54 22.9199C18.54 22.2296 19.0997 21.6699 19.79 21.6699C20.4804 21.6699 21.04 22.2296 21.04 22.9199ZM26.6201 22.9199C26.6201 23.6103 26.0605 24.1699 25.3701 24.1699C24.6798 24.1699 24.1201 23.6103 24.1201 22.9199C24.1201 22.2296 24.6798 21.6699 25.3701 21.6699C26.0605 21.6699 26.6201 22.2296 26.6201 22.9199Z" fill="#F4F4F4"/>
      </g>
    </g>
    <text id="ITEM_4_HEAD" x="0.0" y="138.0" text-anchor="middle" font-size="38" font-weight="800" fill="var(--accent-6)" data-bg-id="ITEM_4_BG" data-max-lines="3" data-min-font-size="13" fill-opacity="1.0" stroke="none" style="font-size: 30px; font-family: Inter, Segoe UI, Kalam, Roboto, Helvetica, Arial, sans-serif; font-weight: 700; letter-spacing:-0.4px;" data-final-font-size="30">
      <tspan x="0.0" dy="41.25px">Conflicting Accounts</tspan>
    </text>
    <rect id="ITEM_4_HEAD_FRAME" x="-152" y="138" width="304" height="66" fill="none"/>
    <text id="ITEM_4_BODY" x="0.0" y="204.0" text-anchor="middle" font-size="24" fill="var(--primary-text)" data-bg-id="ITEM_4_BG" style="font-size: 26px; font-family: Inter, Segoe UI, Kalam, Roboto, Helvetica, Arial, sans-serif; font-weight: 400;" data-final-font-size="26">
      <tspan x="0.0" dy="30.86px">Discrepancies exist</tspan>
      <tspan x="0.0" dy="29.90px">between witness and</tspan>
      <tspan x="0.0" dy="29.90px">military data</tspan>
    </text>
    <rect id="ITEM_4_BODY_FRAME" x="-162" y="204" width="324" height="140" fill="none"/>
  </g>
</svg>
